<svg xmlns="http://www.w3.org/2000/svg" viewBox="0 0 810.49 292.4"><defs><style>.cls-1{fill:#fff;}</style></defs><title>LOGOTIPO-FCITEC_NEGRO-PARA-FONDO-CLARO2</title><g id="fcitec-logo"><path d="M439.74,175.83c0,1.29-.05,2.31,0,3.32.14,2.8.34,5.59.5,8.38.13,2.31.2,4.63.34,6.94a7.71,7.71,0,0,1-1.51,5.64,3.26,3.26,0,0,1-3.61,1.24,5.17,5.17,0,0,1-1.57-.57c-2.91-1.9-6-1.78-9.26-1.13l-.24,0c-3.52,1.21-5.76-.92-7.87-3.14a4.31,4.31,0,0,1-.66-2.24c-.23-1.67-.34-3.34-.55-5a11.14,11.14,0,0,0-2.33-5.95c-1.72-2-2.29-4.47-2.87-7-1.49-6.57-1.63-13.31-2.74-19.92-.44-2.62.09-5.39.14-8.09,0-2,0-4,0-6,0-1.52-.11-3,1.12-4.27a2.24,2.24,0,0,0,.39-1.34c.37-5.9.68-11.8,1.07-17.7.19-2.86.55-5.71.77-8.57a6.63,6.63,0,0,0-.22-2.35,20.7,20.7,0,0,1-.4-11.12,10.11,10.11,0,0,0-.29-6.36,1.9,1.9,0,0,1-.25-.92c.51-2.49-.36-4.85-.6-7.28-.41-4-.54-8.12-.71-12.19a10.57,10.57,0,0,1,.29-3.56c1.47-4.66.32-9-1.32-13.37a4.87,4.87,0,0,0-3.73.06c-1.13.38-2.22.91-3.36,1.27-.74.22-1.73.59-2.3.3-2-1-4.1-.14-6.09-.68a1.43,1.43,0,0,0-.94,0c-2.92,1.59-5.81.11-8.67-.16a16.21,16.21,0,0,0-5,.08c-2,.44-4.05.94-6.08,1.39a12.85,12.85,0,0,1-2.13.3c-2,.09-2.3-.16-2.73-2.14-.77-3.59-1.56-7.18-2.41-10.75a17.44,17.44,0,0,0-1-2.51l-.6.1a22.7,22.7,0,0,0-.39,2.95c0,5.11,0,10.23,0,15.35,0,2.79-.07,5.59,0,8.38a20,20,0,0,0,.58,4.23c1.1,4.4.7,8.92,1.2,13.35.31,2.78.92,5.52,1.33,8.28s.7,5.72-.34,8.53a2,2,0,0,0-.17.93c.68,4-.31,7.83-.94,11.72a46.65,46.65,0,0,0-.25,6.7c0,3.18.35,6.4-.91,9.47a1.9,1.9,0,0,0-.05.95c.28,2.54.5,5.08.89,7.6a10.27,10.27,0,0,0,1.08,3.39,11.26,11.26,0,0,1,1.3,5.3c.07,2.24.22,4.49.09,6.72a50.77,50.77,0,0,0,1.62,14.63c.54,2.33.52,4.52-.94,6.56a9.69,9.69,0,0,0-1.51,5.69c-.05,2.55-.36,5.09-.43,7.65a22.64,22.64,0,0,0,.27,4.51,9.32,9.32,0,0,1-1.79,7.92c-1.37-.3-1.73-1.29-2-2.43-.4-1.69-.45-3.69-1.43-5-2-2.66-1.93-6-3.41-8.83-1.19-2.27-1.54-5-2.26-7.5a28.12,28.12,0,0,0-.82-2.75,2.66,2.66,0,0,0-2.5-1.94,3.48,3.48,0,0,1-2.66-1.35,14.69,14.69,0,0,0-1.31-1.05,2,2,0,0,0-3.19,1.7c1,4.22-.49,8.38-.17,12.58a17.18,17.18,0,0,0,1.29,6.48,8.14,8.14,0,0,1-.57,8,4.11,4.11,0,0,1-4.25,2c-1.17-.13-2.3-.64-3.47-.88-2-.41-4.06-.73-6.09-1.11a6.73,6.73,0,0,1-4.54-2.62c-1.95-2.61-2.86-5.63-3.8-8.59a33.18,33.18,0,0,1-1-6.86c-.34-3.34-.46-6.7-.9-10-.35-2.58-1.05-5.11-1.6-7.72-1.74.71-2.2,1.38-1.72,2.71a26.38,26.38,0,0,0,1.59,3c-.12.2-.15.31-.2.33a12.26,12.26,0,0,0-7,6.19,3.53,3.53,0,0,1-1.38,1.3c-2.89,1.5-5.88,2.84-8.71,4.45a24.24,24.24,0,0,0-3.45,2.93,6.79,6.79,0,0,1-2,1.53c-2.63.83-4.77,2.52-7.12,3.83a13.25,13.25,0,0,1-2.17.86c-.29.1-.69,0-.93.17-2.89,1.95-6.58,1.74-9.55,3.58-1,.61-2.42.53-3.62.93a14,14,0,0,0,6.53-.16c3.38-.91,6.77-1.81,10.1-2.91,2.94-1,5.81-2.19,8.7-3.33s5.63-2.26,8.42-3.45a26,26,0,0,0,3.38-1.69,6.22,6.22,0,0,1,3.83-1.14c.05,1-.73,1.56-1.36,2.09-1.54,1.26-3.11,2.49-4.74,3.62A15.6,15.6,0,0,1,304,190a4,4,0,0,0-2.22,1.55A5.62,5.62,0,0,1,298.4,194c-2,.53-3.87,1.49-5.81,2.22-1,.36-2,.63-2.95.9-1.85.51-3.69,1-5.54,1.49a6.8,6.8,0,0,1-1.14.35c-6.19.57-12.38,1.22-18.59,1.62-2.29.14-4.61-.41-6.92-.52S253,200,250.78,200a9.19,9.19,0,0,0-2.63.15,12.27,12.27,0,0,1-5.9,0,45.32,45.32,0,0,0-5.91-.68,5.77,5.77,0,0,0-2.29.57,4.56,4.56,0,0,1-3.92-.06,8.13,8.13,0,0,0-2.54-.49c-1.89-.22-3.79-.37-5.69-.58-1-.12-2-.34-3.07-.45-4-.4-7.92-.75-11.88-1.16a4.51,4.51,0,0,1-1.84-.47c-3.86-2.28-8.1-3.72-12.16-5.57-2.74-1.26-5.58-2.27-8-4.41l1.49-1.39c-2.87-2.47-5.15-5.7-9.57-5.52a5.18,5.18,0,0,1-2.24-.67c-.83-.38-1-1.1-.87-2,0-.39-.55-.92-1-1.26-1.85-1.52-3.71-3-5.64-4.46s-3.29-3-3-5.56a2.24,2.24,0,0,0-1-2.29,3,3,0,0,1-1.39-2.88,4.27,4.27,0,0,0-1.65-3.33,5.35,5.35,0,0,1-1.64-3.36c-.12-1.11-.46-2.19-.69-3.28-.77-3.78-.62-4.67,1.22-7.73-.5-1.36-.88-2.64-1.44-3.84a23.42,23.42,0,0,0-2-3.52c-1.06-1.51-2.26-2.92-3.4-4.38-.1-.12-.17-.35-.28-.37-1.77-.32-2.16-2-2.94-3.16-1.11-1.71-1.62-3.75-3.19-5.25a3.31,3.31,0,0,1-.62-2.67c.92-4.69-.29-9-1.95-13.31a15.11,15.11,0,0,1-.82-6.83c.29-3.66.43-7.33.73-11a9,9,0,0,1,2.23-5.2,7.59,7.59,0,0,0,1.76-4.35c.3-3.07.71-6.14,2.74-8.7a3.12,3.12,0,0,0,.42-1.58,11.94,11.94,0,0,1,2.37-6.1c2.44-3.44,4.53-7.12,6.77-10.7l2.08-3.33a14.9,14.9,0,0,1-1.92.28,53.43,53.43,0,0,1-5.94-.13c-2-.23-3.82-.41-5.64.46a2.67,2.67,0,0,1-.91.28c-3.82.34-7.62.76-11.44.94-3.34.17-6.71-.22-10,.68a7,7,0,0,1-2.61.21c-4.35-.52-8.61.24-12.91.65a64.86,64.86,0,0,1-7.89.19c-5.91-.16-11.82-.52-17.73-.66-3.19-.08-6.39.13-9.58.24-1.69,0-2,.46-2,2.22,0,2.72.09,5.44-.09,8.15s-.66,5.54-1,8.31c-.27,2.46-.51,4.91-.73,7.37-.12,1.35-.19,2.71-.27,4.06-.07,1-.12,2-.18,3,.36.23.55.47.75.48,3.66.13,7.32.25,11,.34.72,0,1.44-.14,2.16-.1,7,.41,14,.85,21,1.26.64,0,1.28,0,1.91-.05,3.83-.09,7.66-.26,11.49-.23a13.74,13.74,0,0,1,8.32,3.32A3.41,3.41,0,0,1,128.65,93c0,1.92,0,3.84.06,5.75a13.93,13.93,0,0,0,1.23,6.05c.54,1-.39,3.3-1.57,4.13a2.81,2.81,0,0,0-1.11,1.19l6.38.91c-.47,2.94-.54,5.59,2.37,7.13-.27.43-.38.76-.61.93a3.83,3.83,0,0,0-1.35,4.3,2.65,2.65,0,0,1-.79,2.77,11.07,11.07,0,0,0-1.65,2.88c-.78,1.77-1.94,2.89-4,2.84-.47,0-1.15,0-1.37.23-1.27,1.62-3,1.16-4.63,1.15-2.16,0-4.32-.27-6.46-.19a50.29,50.29,0,0,0-5.45.76c-3.64.55-7.26,1.14-10.9,1.66a16.48,16.48,0,0,1-2.63.07q-8.4-.09-16.78-.22c-2.24,0-4.47-.12-6.71-.16s-2.69.45-2.72,2.64c0,1,.05,1.92.1,2.88a59.63,59.63,0,0,1-1.47,15.7A27.94,27.94,0,0,0,68.93,168a67.62,67.62,0,0,1,1.29,16.91,25.12,25.12,0,0,0,.55,5.23c.4,2.53.19,3.15-2,4.19a10.59,10.59,0,0,0-4.22,3.43c-1.35,1.88-2.9,3.62-4.16,5.55-.87,1.33-1.26,2.95-2.08,4.31A15.92,15.92,0,0,1,55.61,211a4.55,4.55,0,0,1-5.75.47c-3.74-2.15-7.44-4.34-11.26-6.34A9.84,9.84,0,0,0,34.24,204c-3.27,0-5.31-1.79-7.08-4.18a8.49,8.49,0,0,1-2.11-5.48,14.55,14.55,0,0,0-.3-2.13c-.2-2-.42-3.94-.57-5.92-.27-3.42-.49-6.84-.73-10.26-.43-6.06-.88-12.11-1.28-18.17a9.45,9.45,0,0,1,.19-3.1,30.46,30.46,0,0,0,.7-7.84c0-1.59.34-3.18.45-4.77a19,19,0,0,0,0-3.11c-.49-5.17-1.18-10.33-1.5-15.51a81.3,81.3,0,0,1-.11-13.87,17.77,17.77,0,0,0-.42-4.51c-.37-2.44-.85-4.86-1.29-7.29a2,2,0,0,0-.18-.69c-2.38-3.35-2.13-7.2-2.13-11,0-4.64.35-9.3-.06-13.9a97.67,97.67,0,0,1-.16-14.81,9,9,0,0,1,.44-2.31c1-2.72.33-4.83-2.08-6.41-1.54-1-3.1-2-4.7-2.88a7,7,0,0,0-2-.61c-.86-.18-1.76-.18-2.6-.41-2.7-.74-3.43-2-3.06-4.76A21.56,21.56,0,0,0,3.86,37a3.68,3.68,0,0,0-1.55-3.08A20.34,20.34,0,0,1,0,31.54a15,15,0,0,1,2.75-2.49A10.51,10.51,0,0,1,6,28.33c1.81-.29,3.11-1.14,3.44-3L22,22c0-1.53-.94-1.8-1.81-1.79a23.87,23.87,0,0,0-4,.42c-2.35.44-4.67,1.12-7,1.47a6.11,6.11,0,0,1-3.2-.52c-1.31-.57-1.6-1.69-1.37-3.24C4.75,17,5.81,17.1,6.74,16.66c3.88-1.84,8.19-1.19,12.14-2.41,1.27-.4,2.55-.75,4.11-1.2L21.35,9.4c.19-.12.37-.33.58-.37,2.73-.52,5.45-1.08,8.19-1.48a2.62,2.62,0,0,0,2-1c1.08-1.52,2.63-1.84,4.39-1.9,3.67-.14,7.33-.47,11-.62a39.1,39.1,0,0,0,8.38-1.72c.15,0,.38,0,.45-.12C57.59.64,59.58,1.07,61.11.33a2.61,2.61,0,0,1,3.27.6c1.72,1.75,4.25,2.59,5.45,5,.2.39,1.1.58,1.69.61,3.67.19,7.35.31,11,.44a7.74,7.74,0,0,0,1.67-.07c6-1.2,12-.73,17.94-.72,7.52,0,15,.12,22.55.42,4.62.18,9.23,1,13.85,1.15a56.1,56.1,0,0,1,11.83,1.71c.92.23,1.79.62,2.7.92s2,.64,2.95.94c1.82.56,3.67,1,5.45,1.68s3.35,1.5,5,2.25a5,5,0,0,1,3,5.21c-.1.93-.5,1.49-1.49,1.52-7.34.21-14.68.92-22,.18-2.76-.27-5.54-.41-8.5-.62.45,1.19,1.3,1.2,2,1.28,6.44.68,12.87,1.52,19.32,1.94a18,18,0,0,1,8.34,2.58,4,4,0,0,1,2.29,3.87c-.08,2.16-.06,4.32-.08,6.47a8.35,8.35,0,0,0,.13,1.12,14.1,14.1,0,0,0,6-5.6,5,5,0,0,1,1.86-1.42,22,22,0,0,0,5.22-4.16,35.08,35.08,0,0,1,4.5-3.39c1.55-1.13,3.16-2.17,4.66-3.35,2.06-1.64,4-3.41,6.07-5.07A11.49,11.49,0,0,1,199.5,15a39.74,39.74,0,0,1,4.58-2.46,11.81,11.81,0,0,1,4.4-.71,6.52,6.52,0,0,0,3.57-1,7.38,7.38,0,0,1,3.12-.93c1.81-.06,3.63.19,5.44.3a4.19,4.19,0,0,0,.94,0c3.55-.56,7.1-1.1,10.64-1.72,1.87-.33,3.7-1,5.57-1.17a48,48,0,0,0,10.38-1.68,5.61,5.61,0,0,1,2.57.08,13.44,13.44,0,0,0,6,.09,9.15,9.15,0,0,1,6.33.45,13.75,13.75,0,0,0,6.79,1A13.7,13.7,0,0,1,279,9.54a2.36,2.36,0,0,0,1,.52c3,.38,5.28,2.21,7.84,3.49a4.33,4.33,0,0,1,1.53,1.13c1.57,2.1,3.89,3.27,6,4.73A7.25,7.25,0,0,1,298.14,26c-1.35-.06-1.85-1.07-2.32-2.08A3.6,3.6,0,0,0,293,21.57c.18,1.86.33,3.58.52,5.29A2.07,2.07,0,0,0,294,28c1.67,1.83,3.32,3.7,5.14,5.39a8.56,8.56,0,0,0,2.79,1.32,3.05,3.05,0,0,1,2,2.4c.83,3.15,1.95,6.23,3,9.31a2.21,2.21,0,0,1,0,2.21,5.19,5.19,0,0,0-.21,2.26,23,23,0,0,1-.18,4c-.53,2.39-2.84,3.11-4.73,1.54a4.92,4.92,0,0,1-1.49-2.12,4.54,4.54,0,0,0-2.06-2.52c-1.82-1.15-3.57-2.43-5.46-3.46a6.64,6.64,0,0,0-4.73-.82l3,2.24-3.1.78c.12.26.16.58.32.65,3.54,1.65,4.84,5.67,8.1,7.61.14.08.33.19.35.31.48,2.15,1.05,4.29,1.33,6.46.11.82-.75,1.43-1.68,1.32a14.91,14.91,0,0,1-2.54-.61c-.65-.2-1.27-.52-2.43-1l1.81,4.12a29.15,29.15,0,0,1-4,.34,3.59,3.59,0,0,1-2.39-.85,9.17,9.17,0,0,0-7-3.28A9.47,9.47,0,0,1,275.07,64c-4.91-3-9.84-6.06-15.54-7.45-1.61-.39-3.28-.53-4.93-.78a5.87,5.87,0,0,1-1.65-.22c-2.57-1.2-5.33-.82-8-1.05a31.54,31.54,0,0,0-5.72-.33,65.35,65.35,0,0,0-7,1.4,26.32,26.32,0,0,1-2.75.57c-2.57.25-5.08.61-7.2,2.28-.18.14-.38.35-.6.37-2.76.38-4.38,2.47-6.32,4.1-1.22,1-2.55,1.91-3.82,2.87A12.08,12.08,0,0,0,210.08,67c-1.32,1.38-2.56,2.84-3.93,4.16a12.48,12.48,0,0,0-2.59,3.36A17.94,17.94,0,0,1,201,78.34a15.26,15.26,0,0,0-3.74,7.86,76.7,76.7,0,0,1-2.08,8.29,19.82,19.82,0,0,0-1,9.1,17,17,0,0,1-.07,2.84c0,1.9,0,3.81.15,5.7.09,1.14.83,2.18.26,3.45-.18.4.43,1.13.63,1.72a27.5,27.5,0,0,1,1.25,4.06c.28,1.75.37,3.46,1.81,4.8.47.44.57,1.29.82,2a25.35,25.35,0,0,0,5.66,9.64,20.32,20.32,0,0,0,2.86,2.05c.26.18.64.24.83.46,2.33,2.75,5.64,4.15,8.5,6.17a5.58,5.58,0,0,1,.92.75,9.6,9.6,0,0,0,7.88,3.28,17.64,17.64,0,0,1,4.89,1.06,11.5,11.5,0,0,0,5.19.31,29.5,29.5,0,0,1,6.44-.28c5.23.35,10.37-.41,15.52-1a20.49,20.49,0,0,0,5.41-1.75c2.12-.9,4.13-2,6.2-3a3.6,3.6,0,0,1,1.58-.43,10.31,10.31,0,0,0,5-1.53c2.42-1.22,4.91-2.3,7.4-3.37a3,3,0,0,1,3.87.79c.55.66,1.85.66,2.45,1.3,2.2,2.33,3.94,1.34,5.91-.34a11.49,11.49,0,0,1,5.64-2.2c-.73.88-1.15,1.4-1.57,1.92l.22.35c2.23-1,4.46-1.91,6.66-2.94.47-.22.8-.75,1.2-1.13,1.1-1,1.82-.9,2.26.48a17.18,17.18,0,0,1,.42,2l-2.19,1.46c1.52,1.09,3.06.66,4.78,1.11-.36-1.73-.65-3.1-.94-4.48a21.91,21.91,0,0,1-.11-7.62,57.09,57.09,0,0,0,.32-7.17c0-2.65,0-5.28,1.11-7.78a5.28,5.28,0,0,0,.29-1.64c.17-2.38.35-4.77.44-7.16,0-.94-.17-1.9-.21-2.85s0-1.87,0-2.81c0-.31.16-.63.15-.93-.13-2.38-.4-4.75-.41-7.13a29.32,29.32,0,0,0-1-7.09c-.66-2.62-.69-5.41-1.4-8-1.93-7.13-.86-14.25-.24-21.37.37-4.23.77-8.43-.05-12.66a15.25,15.25,0,0,1-.17-2.62c0-2-.13-4-.05-6a39.71,39.71,0,0,1,.55-4.48c.59-3.77,0-7.5-.32-11.24-.15-1.88-.6-3.75-.91-5.62,0-.08,0-.18,0-.24,1-1.85.08-3.75.14-5.63s.46-2.21,2.29-2.24a3.44,3.44,0,0,0,1,0c2.8-1.06,5.17.26,7.61,1.3a6.16,6.16,0,0,0,2.1,0,13.23,13.23,0,0,1,.14,2.56,12.81,12.81,0,0,0,.53,6.14,51.49,51.49,0,0,1,1.56,5.28A7.74,7.74,0,0,0,328,26c.36.31,1.09.61,1.4.45a1.65,1.65,0,0,0,.52-1.39c-.32-2.53-.75-5-1.15-7.55,0-.24-.11-.47-.12-.71-.09-3.16.36-6.41-1.92-9.09,1.16-.6,2-1,2.79-1.45,1.65-1,2.43-.73,2.83,1.25.64,3.12,1.11,6.28,1.64,9.43.07.38.11.77.18,1.26,1.08-1.42,1.12-1.42,1.3-5.33.1-1.91,0-3.83,0-5.65a5.35,5.35,0,0,1,5.91-.41c1.91,1,3.37,2.13,2.82,4.51,2.32,1.29,3.13,1,3.51-1.38.21-1.25.25-2.54.37-3.93l2-.7a3.18,3.18,0,0,1,.64.26A28.29,28.29,0,0,0,353.1,7.1c1.41.69,2.73,1.35,2.62,3.28,0,.37.41.85.76,1.13a9,9,0,0,1,3.11,6.75c.16,2.15.48,4.28.76,6.42a15.87,15.87,0,0,0,.49,1.84A5.2,5.2,0,0,0,363,22.2a68,68,0,0,0-.67-7.13,32.38,32.38,0,0,0-.95-4.21,1.5,1.5,0,0,1,1-2.08c2.4-.78,4.87-1.38,7.24-2.24,4.44-1.62,9-.63,13.55-1s8.95-.31,13.42-.48a42.49,42.49,0,0,1,8.58.41A19.62,19.62,0,0,0,409,5.38c2.56-.09,5.11-.2,7.66-.24s5.09,0,7.64,0c2.08,0,4.16.11,6.23.13s4.14,0,6.21,0c.48,0,1.09-.19,1.4,0,1.73,1.23,3.71.89,5.57.9,7.44,0,14.87-.13,22.31-.09,3.33,0,6.66.43,10,.5,3,.08,6.06,0,9.08-.12,4.39-.21,8.77-.62,13.16-.81,1.65-.07,3.32.39,5,.33,2.55-.09,5.1-.38,7.63-.67s4.73-.61,7,.77c1.27.78,1.87,1.64,1.54,3.1-.16.69-.37,1.38-.49,2.08-.16.89-.25,1.78-.42,3.06a15.75,15.75,0,0,0,1.71-.66c3.27-1.85,6.55-3.69,9.78-5.6a14.48,14.48,0,0,1,7.09-1.95c3.35-.1,6.71,0,10.07-.08a47.69,47.69,0,0,0,4.78-.27,34.57,34.57,0,0,1,11.42,1,8.63,8.63,0,0,0,5.84-.41,4.63,4.63,0,0,1,4.56,0,8.36,8.36,0,0,0,6,.84,30.5,30.5,0,0,1,4.28-.51,9.75,9.75,0,0,1,5.78,1.15,3.91,3.91,0,0,0,2.47.38,14.31,14.31,0,0,1,4.48-.08,36.54,36.54,0,0,0,8.55.2,40.81,40.81,0,0,1,10,.43,26.87,26.87,0,0,1,5.81,1.31,6.93,6.93,0,0,0,5.11-.15,4.35,4.35,0,0,1,5.49,2.69c.31,1.09-.12,1.82-1.39,2-2.46.35-4.92.59-7.39.87a6.57,6.57,0,0,0-1.42.16c-3.54,1.3-7,.73-10.64.16a41.24,41.24,0,0,0-11.48-.22,6.35,6.35,0,0,0-2.81,1c.9.16,1.79.34,2.69.48,1.8.3,3.61.59,5.41.87a6.74,6.74,0,0,0,1.19.08C612,18,618,18.63,624,18.65a4.2,4.2,0,0,1,1.42.19c4.5,1.67,9.28,1.42,13.93,2.05,2.53.34,5.1.44,7.64.66,4.21.37,7.23,2.83,9.89,5.8a3.09,3.09,0,0,1,.35,3.81,3.52,3.52,0,0,1-3.48,1.47,17.52,17.52,0,0,0-4.25.32c-.63.07-1.27.45-1.85.36a39,39,0,0,0-8.07-.65c-1.9.13-3.81,0-5.71,0-1.74,0-3.59.19-5.2-.33a19.45,19.45,0,0,0-7.56-.79c-3.59.25-7.18.51-10.76.82-1.08.1-2.14.38-3.56.64a5.52,5.52,0,0,0,4.31,1.44c2.72,0,5.44-.09,8.15,0,5.2.19,10.39.4,15.57.79a59.5,59.5,0,0,1,7.48,1.23c2.46.52,4.91,1.13,7.31,1.86A7.73,7.73,0,0,1,652.48,40a3.52,3.52,0,0,1,.82,4.52,39.14,39.14,0,0,0-1.81,5.65,6.1,6.1,0,0,1-6.24,4.1c-1.58-.2-3.18-.2-4.77-.28a4.38,4.38,0,0,1-.72,0c-2.09-.44-4.16-.69-6.17.41-.34.19-.93-.08-1.4-.12a4.15,4.15,0,0,0-1.63-.09c-3.27,1.22-6.65.63-10,.65s-6.71,0-10.06,0a19.7,19.7,0,0,1-3.34-.34,30.08,30.08,0,0,0-8.58-.08c-2.94.28-5.91.29-8.86.42a14.25,14.25,0,0,0-6,1.52,6.35,6.35,0,0,1-5.74,0c-4.13-1.75-8.55-1.83-13-1.72a1.42,1.42,0,0,0-1.5,1.52,37.68,37.68,0,0,0-.25,3.82c.13,3.09-.66,6.21.29,9.27a3.15,3.15,0,0,1,0,1.67c-1,3.71-.26,7.49-.52,11.23-.12,1.56,0,1.66,1.55,1.53,2.44-.21,4.86-.58,7.3-.75,4.06-.3,8.1-.74,12.16.2a12.51,12.51,0,0,0,4.76-.08,27.22,27.22,0,0,1,9,.37,39.26,39.26,0,0,0,6.67.49,45.75,45.75,0,0,1,11.2,1,31,31,0,0,0,10,.22c3-.3,3.05-.25,4.4,2.45.17.36.3.84.6,1a48.55,48.55,0,0,0,5.22,2.8,11.13,11.13,0,0,0,3.25.29,14.92,14.92,0,0,1,.25-2.53,15.32,15.32,0,0,1,1.41-4,20.12,20.12,0,0,0,2.79-7.84c.42-2.82.53-5.67,2.52-8a3.14,3.14,0,0,0,.53-1.81c.11-3.72,2-6.62,4.18-9.41a10.34,10.34,0,0,0,.84-1.16c2.26-3.93,4.5-7.87,6.76-11.79a4.44,4.44,0,0,1,1-1.07c1.37-1.18,3-2.1,3.48-4.1.11-.46.79-.76,1.16-1.18.83-1,1.63-1.94,2.44-2.91.24-.3.45-.8.73-.85,2-.39,2.76-2.09,3.69-3.54A7.87,7.87,0,0,1,674.59,28a6.42,6.42,0,0,0,2.33-1.66c2.56-2.88,5.75-4.9,8.86-7.1,2.8-2,5.27-4.41,7.92-6.6a15.38,15.38,0,0,1,2.15-1.37,31.18,31.18,0,0,1,4.73-2.66,28.69,28.69,0,0,1,4.86-.84,5.77,5.77,0,0,0,2.41-.65A7.15,7.15,0,0,1,713,5.67c1.11.08,2.23,0,3.27,0,.54.64.93,1.55,1.5,1.68a5.92,5.92,0,0,0,2.48-.45,15.44,15.44,0,0,1,2.26-.61c2.32-.19,4.51-.44,6.53-1.93a7.19,7.19,0,0,1,4.05-1.1A29.88,29.88,0,0,0,743.47,1.6a6.5,6.5,0,0,1,5.75.68,8.15,8.15,0,0,0,5.44,1.08,83.3,83.3,0,0,1,9.75-.18,1.8,1.8,0,0,1,.93.15c4.63,2.82,9.95,3.68,15,5.27,1.57.5,3.32.78,4.6,1.69A11.39,11.39,0,0,1,788,14.12c1.15,2.13,1.34,4.55,1.57,7a19,19,0,0,0,1.18,5.59c.86,2,2.35,3.69,3.4,5.61a5.17,5.17,0,0,1,.65,2.91,2.64,2.64,0,0,1-1.52,1.88,48.18,48.18,0,0,1-7.09,1,5.77,5.77,0,0,1-2.43-.85c-1.28-.59-2.49-1.38-3.81-1.86-2.18-.78-4.41-1.42-6.65-2a8.82,8.82,0,0,0-2.81-.22c-2.23.14-4.46.33-6.67.6-2.37.29-4.75.61-7.08,1.1a11.24,11.24,0,0,0-2.62,1.35l.16.52c1,0,2.09,0,3.13,0,2.08-.07,4.15-.23,6.23-.25a4.35,4.35,0,0,1,2,.5c1.93,1.05,3.73,2.35,5.72,3.26a7.22,7.22,0,0,0,3.47.42,3.2,3.2,0,0,1,2.56.81,11.42,11.42,0,0,0,3.75,2,22.59,22.59,0,0,1,6,3.43,7.2,7.2,0,0,1-6,.4c-1.76-.7-3.89-.57-5.3-2.23-.29-.34-1-.36-1.6-.4a20.77,20.77,0,0,0-7.81.35c-.16,2.38,2.32,2.92,2.75,4.74-1.89,2.42-1.86,2.35-4.8,1.32a14.52,14.52,0,0,0-4.17-.79,11.84,11.84,0,0,1-4.67-.79,3.34,3.34,0,0,0-3.23-.15,1.14,1.14,0,0,1-.88.15c-1.88-.86-3.65.09-5.37.48a49.12,49.12,0,0,1-9.56,1.47,4.86,4.86,0,0,0-1.36.46c-3.38,1.17-6.74,2.47-10.18,3.47a16.91,16.91,0,0,0-6.23,2.92c-.19.15-.37.39-.57.42-3.61.53-5.63,3.88-8.89,5a1.81,1.81,0,0,0-.89.77A10.08,10.08,0,0,1,704,68.23a8.7,8.7,0,0,0-3.84,4.1,17,17,0,0,1-2.65,4.09,15.92,15.92,0,0,0-3.75,7.89c-.26,1.31-.77,2.57-1,3.88-.49,2.26-1,4.52-1.33,6.81-.3,2-.45,3.94-.63,5.92a4,4,0,0,0,.12,1.42,11.62,11.62,0,0,1,0,5,26.38,26.38,0,0,0,.2,4.51c0,1.22,1.06,2.35.27,3.69-.15.26.17.94.44,1.3a10.47,10.47,0,0,1,1.68,5.66,5.22,5.22,0,0,0,1.28,3.27,7.1,7.1,0,0,1,1.15,2.32,26.77,26.77,0,0,0,5.3,9.32c1,1,1.88,2.19,3.41,2.5a1.85,1.85,0,0,1,.63.34c3.86,2.94,7.73,5.86,11.55,8.85a6.3,6.3,0,0,0,4.05,1.25,24,24,0,0,1,7.27,1.32,9.24,9.24,0,0,0,3.06.34c2.71-.09,5.42-.55,8.11-.41,5.07.29,10.05-.51,15-1.06a19.06,19.06,0,0,0,5.19-1.67c2.11-.9,4.13-2,6.21-3a4.49,4.49,0,0,1,1.79-.52,9.56,9.56,0,0,0,4.53-1.35c2.41-1.24,4.87-2.41,7.37-3.45a4.35,4.35,0,0,1,4.77.75,14.31,14.31,0,0,0,6.07,3.06,16.34,16.34,0,0,1,5.17,1.68,12,12,0,0,0,6.26,1.2c1.11,0,2.22,0,3.42,0a7.46,7.46,0,0,1,.43.84c1.51,4.45,3.05,8.88,4.48,13.35a10.63,10.63,0,0,1,.45,3.5,22.07,22.07,0,0,1-.56,5.59,31.71,31.71,0,0,1-2.62,5.57,2.82,2.82,0,0,1-1.18,1.14c-2.89,1.5-5.88,2.84-8.71,4.46A27,27,0,0,0,794,184.6a16.32,16.32,0,0,1-2.47,1.76c-1.1.61-2.37.94-3.41,1.62a33.36,33.36,0,0,1-11.31,4.7,18.76,18.76,0,0,0-2.23.83,45.82,45.82,0,0,0-5.76,2.27c1.86-.1,3.85.17,5.57-.38,3.17-1,6.46-.91,9.65-1.57,2.59-.54,5.18-1,7.76-1.57a5.56,5.56,0,0,0,1.13-.38c3.56-1.61,7.15-3.15,10.65-4.86a43.28,43.28,0,0,0,4.21-2.74,12.91,12.91,0,0,1,1.31-.68,1.89,1.89,0,0,1-.7,2.23c-1.81,1.55-3.66,3-5.57,4.49a14,14,0,0,1-2.13.89c-1.47.74-2.91,1.52-4.36,2.31-.27.14-.47.47-.76.55-4.89,1.44-9.77,2.9-14.69,4.23-1.61.44-3.33.42-5,.79-1.19.27-2.29,1-3.48,1.18a17.44,17.44,0,0,0-3.47.52,67.79,67.79,0,0,1-7.25,1.59,6.66,6.66,0,0,1-1.67.07c-5.42-.33-10.84-.62-16.25-1-2.26-.17-4.5-.64-6.75-1-2.52-.37-5-1-7.58-.11A5.54,5.54,0,0,1,727,200c-.61-.13-1.24-.61-1.8-.54-4,.53-7.73-1.11-11.64-1.26-3.25-.12-6.5-.53-9.73-.94a12.31,12.31,0,0,1-2.83-1.06c-.29-.12-.53-.37-.82-.5-3.74-1.61-7.45-3.3-11.24-4.79a21.35,21.35,0,0,1-7.57-4.41l1.29-.85c0-.11.07-.33,0-.41-2.62-2.67-5.08-5.54-9.4-5.34-1.74.08-2.24-.65-2.85-2.63a3.41,3.41,0,0,0-1.15-1.45c-1.86-1.52-3.73-3-5.65-4.45s-3.23-3-2.9-5.6a2.23,2.23,0,0,0-1.07-2.23,2.89,2.89,0,0,1-1.31-2.68,4.13,4.13,0,0,0-1.52-3.38,4.8,4.8,0,0,1-1.63-3.09,4.68,4.68,0,0,0-1.86-3.47,4.39,4.39,0,0,1-1.64-3.83,7.84,7.84,0,0,0-1-3.89,9.71,9.71,0,0,1-.75-2.51c-.47-2.42-.84-4.87-1.37-7.28a7.59,7.59,0,0,0-1.63-3.35,25.12,25.12,0,0,1-2.8-5.22,1.51,1.51,0,0,0-2.26-.91c-3.37,1.2-6.91,1.8-10.36,2.67a71.7,71.7,0,0,1-12.22,1.9,9.88,9.88,0,0,0-3.66,1,7.13,7.13,0,0,1-4.15.82c-1.6-.15-3.18-.39-4.77-.47a24.79,24.79,0,0,0-4.56,0,37,37,0,0,1-11.7-.24,12.17,12.17,0,0,0-7.05.66,3.21,3.21,0,0,1-1.87.1,24.85,24.85,0,0,0-10.92.28c-1.63.34-3.31.44-5.25.68-.81,7.19.66,14.3.69,21.39,1.45,1,2.91.73,4.29.46,2.41-.48,4.77-1.37,7.29-.5.41.14.94-.14,1.42-.13,1.66,0,3.32.19,5,.2,1.25,0,2.51-.16,3.76-.18a12.78,12.78,0,0,1,3.28.14,12,12,0,0,0,8.63-.72c2.66-1.33,5.4-1.12,8.13-.35a15.15,15.15,0,0,0,7.11.41,5,5,0,0,1,2.83.09c1.66.75,3.05.28,4.57-.29a22.3,22.3,0,0,1,9.16-1.53,4.22,4.22,0,0,1,3.59,2,9.06,9.06,0,0,0,2.37,2.29,3.39,3.39,0,0,0,2.21.44c2.34-.39,4.06.17,5.22,2.17a4.28,4.28,0,0,0,1.67,1.47A14.23,14.23,0,0,1,650,162a3.53,3.53,0,0,1-1,5,3.73,3.73,0,0,1-2.07.2c-2.52-.19-3,.16-3.61,2.67-.19.77-.41,1.54-.68,2.6.68.37,1.39.82,2.16,1.16,1.24.54,2.53,1,3.77,1.53,1.86.82,2,1.16,1.8,3.11a5.08,5.08,0,0,1-.25,1.17,20.09,20.09,0,0,0-1.56,7.4,5.64,5.64,0,0,1-3.37,5.16c-2.44,1.2-5,2.24-7.28,3.65a13.46,13.46,0,0,1-7,1.8c-5.58.2-11.15,1-16.73,1.29-2.2.13-4.44-.35-6.66-.41a17.41,17.41,0,0,0-5,.3,21.73,21.73,0,0,1-9.49.22,17,17,0,0,0-3.55-.31c-4.39.22-8.76.65-13.15.8-2.79.09-5.51,0-8.21,1.14-1.19.49-2.84.1-4.21-.19a5.45,5.45,0,0,0-3.9.39,9,9,0,0,1-3.47.57c-.78,0-1.57-.32-2.36-.36-2.77-.13-5.3-.61-7.36-2.82-1.14-1.22-2.36-.91-3.54.34-.38.4-.69.88-1,1.31-1.18,1.46-1.7,1.49-3.08.17-.46-.45-.79-1.08-1.33-1.37-1.09-.58-2.32-1.45-3.41-1.35a4.12,4.12,0,0,1-3.21-1,50.59,50.59,0,0,0-4.51-2.72c.08-.67.19-1.58.31-2.63-.5-.09-.95-.22-1.41-.26-3.26-.27-5.86-1.84-8.32-3.9a5.72,5.72,0,0,1-2.18-5,5.88,5.88,0,0,0-1-3.47,25.31,25.31,0,0,1-2.18-6,50.38,50.38,0,0,1-1.6-15.91c.34-5.92-.63-11.8-1.49-17.66-.25-1.73-.68-3.44-.86-5.17a25.23,25.23,0,0,1,.1-3.58c0-1,.06-2.06.1-3.09a4.41,4.41,0,0,1,.13-1.15A69.33,69.33,0,0,0,511,114.49a33,33,0,0,0,.29-7.36,11.47,11.47,0,0,1,.1-2.87c.9-4.62.38-9.24.22-13.87-.21-6.24-.29-12.47-.41-18.71a3.07,3.07,0,0,1,.07-1c1.44-4.84.91-9.83,1.12-14.77.11-2.8.32-5.59.47-8.38,0-.76,0-1.52,0-2.43a4.14,4.14,0,0,0-3,2.13,7.64,7.64,0,0,1-5,3A60.11,60.11,0,0,1,491,51.58c-7-.07-13.92-.14-20.86-.49-2.53-.12-3.68,1-4.48,3a7.35,7.35,0,0,0-.43,1.12c-1.14,5.39-2.74,10.68-3.07,16.23-.12,1.9-.7,3.76-1,5.65-.28,1.71-.49,3.44-.7,5.17a26.39,26.39,0,0,1-.62,5.16c-.66,2-.41,3.94-.33,5.92.05,1.51,0,3,.07,4.54.1,1.66.28,3.32.46,5,.23,2.06.61,4.1.71,6.16q.38,7.9.54,15.82c.06,3.36-.2,6.73,0,10.08.19,3.6-.19,7.15-.3,10.72s.81,7.3,1,11c.23,5.43.17,10.86.23,16.29a2.39,2.39,0,0,1-.1.71c-1.4,4.12-1.36,8.31-.88,12.57a24.16,24.16,0,0,1-.29,4.47,1.3,1.3,0,0,0,0,.48c.86,2-.05,3.92-.18,5.87a28.35,28.35,0,0,1-.9,4.62c-.23.89-.77,1.66-1.87,1.48a1.61,1.61,0,0,1-1.49-1.86c.53-3.32-1-6.19-2.34-8.89a21.3,21.3,0,0,1-2.27-7.35,15.59,15.59,0,0,0-2-5.31,5.07,5.07,0,0,0-2.52-2.08,61.14,61.14,0,0,0-6.18-1.67A10,10,0,0,0,439.74,175.83Z"/></g><g id="fcitec-title"><path d="M227.3,252.36h4.34a10.06,10.06,0,0,1-.51,5.72,3.67,3.67,0,0,1-2.73,2.46,26.46,26.46,0,0,1-13.74-.11,3.93,3.93,0,0,1-3-3.15,28.63,28.63,0,0,1-.77-4.47c-.15-3-.16-6.08-.12-9.12a13.74,13.74,0,0,1,.56-3.29,5,5,0,0,1,3.7-3.74,27,27,0,0,1,12.35-.42,4.61,4.61,0,0,1,3.89,4c.2,1.17.25,2.36.39,3.76h-4.44a1.93,1.93,0,0,1-.26-.52c-.61-3.27-1-3.64-4.41-3.67a36.42,36.42,0,0,0-4.3.21,2.6,2.6,0,0,0-2.51,2.47,46.42,46.42,0,0,0,.12,12.18,2.46,2.46,0,0,0,2.39,2.29,47.73,47.73,0,0,0,6.44,0,2.54,2.54,0,0,0,2.39-2.58C227.17,253.82,227.22,253.19,227.3,252.36Z"/><path d="M483.68,245.64c.2-.8.33-1.3.48-1.92h3.68a16.05,16.05,0,0,1,.21,1.86c0,5.36,0,10.71,0,16.06,0,.24,0,.48,0,.72-.27,4.45-1.66,6-6.07,6.44a24.26,24.26,0,0,1-5.25-.1c-3.32-.39-4.39-1.85-4.18-5.55h3.5c1.09,2.42,2.86,3.15,5.56,2.3,2.17-.69,2.69-2.21,2-6.24-2.06,2.1-4.56,2.15-7.14,1.8a4.53,4.53,0,0,1-4.19-3.68,23.28,23.28,0,0,1-.08-10,4.63,4.63,0,0,1,4.09-3.83C479,243.06,481.55,243.21,483.68,245.64Zm.21,6.85c0-.91-.06-1.47-.11-2,0-.39-.11-.79-.19-1.18-.39-1.82-1-2.44-2.87-2.63a9.46,9.46,0,0,0-2.38.08,2.27,2.27,0,0,0-2.16,2.2c-.08,2.22-.08,4.45,0,6.67a2.19,2.19,0,0,0,2.15,2.17,11.88,11.88,0,0,0,2.38.08c1.95-.22,2.46-.7,2.83-2.63C483.75,254.21,483.81,253.17,483.89,252.49Z"/><path d="M774.86,245.7l.38-2h3.69c.06.66.16,1.28.16,1.89,0,5.35,0,10.7,0,16.05s-1.55,6.87-6.75,7.25a22,22,0,0,1-4.29-.18c-3.53-.43-4.5-1.65-4.46-5.51a4.32,4.32,0,0,1,.88-.2c.87,0,1.74,0,2.55,0,1.18,2.52,3,3.26,5.62,2.46,2.23-.67,2.73-2.19,2-6.15-2.09,2-4.6,2-7.17,1.67a4.48,4.48,0,0,1-4-3.57,21.29,21.29,0,0,1-.06-10.19,4.53,4.53,0,0,1,3.72-3.62C769.92,243,772.61,243.15,774.86,245.7Zm-7.78,6.39H767c.09,1.11.08,2.24.28,3.33.3,1.66.85,2.14,2.52,2.4a7.68,7.68,0,0,0,1.66.09c2.31-.16,3.16-.92,3.35-3.21a30.52,30.52,0,0,0,0-4.78c-.19-2.55-1.22-3.35-4-3.32-2.58,0-3.47.81-3.7,3.34C767,250.65,767.08,251.37,767.08,252.09Z"/><path d="M372.53,261H368.9l-.29-1.57c-.24.07-.5.07-.64.2-2.6,2.35-5.54,2.05-8.53,1.05A3.44,3.44,0,0,1,357.2,258a24,24,0,0,1-.17-10.9,4.41,4.41,0,0,1,3.76-3.55,8.08,8.08,0,0,1,7.77,2v-9.39h3.83C372.87,237.89,373,257.64,372.53,261ZM360.63,252c.06.76.11,1.39.17,2,0,.48.07,1,.15,1.43a2.56,2.56,0,0,0,2.48,2.49,8.62,8.62,0,0,0,2.38,0,2.52,2.52,0,0,0,2.48-2.46,35.2,35.2,0,0,0,.21-5c-.25-3.21-1.79-4.31-5-3.82a2.61,2.61,0,0,0-2.62,2.61C360.76,250.2,360.71,251.17,360.63,252Z"/><path d="M149.2,261h-3.55l-.4-1.94c-2.33,2.5-5.09,2.65-8,2a4.13,4.13,0,0,1-3.45-3.24,22.69,22.69,0,0,1-.11-10.68,4.44,4.44,0,0,1,3.57-3.47,8.7,8.7,0,0,1,8,1.7v-9.11h4Zm-4-8.71a26.56,26.56,0,0,0-.2-3c-.32-1.87-1.39-2.59-3.68-2.62s-3.47.55-3.68,2.49a29.32,29.32,0,0,0,.05,6.42c.23,2,1.56,2.7,3.88,2.57s3.18-.86,3.45-2.88C145.14,254.25,145.13,253.29,145.19,252.25Z"/><path d="M174.48,245.39v-9.18h4V261h-3.55l-.4-1.94c-2.42,2.6-5.27,2.66-8.27,1.94a4,4,0,0,1-3.13-3,22,22,0,0,1-.1-11.13,4.26,4.26,0,0,1,3.27-3.17A8.61,8.61,0,0,1,174.48,245.39Zm0,6.72c0-.63,0-1.68-.19-2.7a2.74,2.74,0,0,0-2.8-2.74,9.23,9.23,0,0,0-2.62.12,2.27,2.27,0,0,0-1.93,1.88,16.19,16.19,0,0,0,.09,7.36,2.41,2.41,0,0,0,.88,1.36,5.13,5.13,0,0,0,4.84.26c1.33-.52,1.49-1.75,1.59-3C174.42,254,174.44,253.24,174.5,252.11Z"/><path d="M29.55,246.83v3.89H18.32V260.9H13.74V236.46c1.63-.52,12.64-.67,16.31-.21v3.53c-3.75.35-7.64-.07-11.63.25v6.63C22,246.91,25.66,246.63,29.55,246.83Z"/><path d="M807.25,261h-3.9c-.14-.51-.26-1-.39-1.46a4.3,4.3,0,0,0-.68.34c-2.57,1.87-5.38,1.82-8.21.86-2-.66-2.91-2.38-2.92-4.76s.94-4.21,3-4.93a10.26,10.26,0,0,1,8.55.66c.73-2.81.33-4.6-1.15-5.27a4.37,4.37,0,0,0-5.74,2h-3.66c-.26-3.08.46-4.18,3.12-4.75a19.69,19.69,0,0,1,8.09.06,4.08,4.08,0,0,1,3.6,3.62,10.57,10.57,0,0,1,.25,1.66C807.26,252.92,807.25,256.82,807.25,261Zm-8-2.35c.57-.1,1.19-.19,1.81-.34a2.43,2.43,0,0,0,0-4.8,12.08,12.08,0,0,0-4,0c-1.23.23-1.73,1.23-1.68,2.52a2.11,2.11,0,0,0,1.91,2.31A18.35,18.35,0,0,0,799.23,258.63Z"/><path d="M125.17,259.48a8.76,8.76,0,0,1-8,1.51,4.63,4.63,0,0,1-3.79-4.86c-.08-2.78,1-4.59,3.57-5.27a10,10,0,0,1,8.1.91c.57-3.42.2-4.79-1.37-5.4-2.24-.87-4.21-.15-5.68,2.08h-3.51c-.41-2.95.35-4.17,3-4.75a19.18,19.18,0,0,1,8.56.13,3.89,3.89,0,0,1,3.13,3.25,6.08,6.08,0,0,1,.24,1.17c0,4.15,0,8.29,0,12.63h-3.85Zm-3.62-6.27c-.65,0-1,0-1.28.08-1.81.23-2.67,1.13-2.64,2.73s.71,2.3,2.58,2.45a12.53,12.53,0,0,0,3.28-.25,2.21,2.21,0,0,0,1.85-2.17,2.33,2.33,0,0,0-1.79-2.48A11.73,11.73,0,0,0,121.55,253.21Z"/><path d="M48.42,261c-1.74-.15-3.55.93-4.45-1.36A8.84,8.84,0,0,1,36.25,261a4.69,4.69,0,0,1-3.86-4.82,4.89,4.89,0,0,1,3.5-5.33c2.2-.73,5-.48,8.12.7.65-3.11.29-4.56-1.29-5.19-2.24-.88-4.3-.14-5.72,2.18-.78,0-1.65,0-2.52,0a10.43,10.43,0,0,1-1.14-.15c-.11-3.15.63-4.38,3.5-4.7a33.22,33.22,0,0,1,7.59.07c2.65.31,3.84,1.64,4,4.31C48.55,252.28,48.42,256.5,48.42,261Zm-8-7.88a14.59,14.59,0,0,0-2.33.5,2.24,2.24,0,0,0-1.43,2.5c.1,1.13.54,2.12,1.8,2.18a20.71,20.71,0,0,0,4.24-.17,2,2,0,0,0,1.65-2.08,2.23,2.23,0,0,0-1.59-2.41A19,19,0,0,0,40.39,253.13Z"/><path d="M610.37,243.79c.7-.08,1.24-.17,1.78-.19.79,0,1.57,0,2.48,0l4.2,14.08h.41c1.07-4.61,2.14-9.22,3.24-13.94h4.3c-.61,2.5-1.17,4.81-1.74,7.12-1,3.87-1.91,7.74-2.88,11.61-.15.62-.32,1.24-.53,1.84-1.35,3.88-3.27,5-7.78,4.4-.05-.78-.1-1.61-.13-2.24a12.88,12.88,0,0,0,3.1-1.92c.67-.75.86-1.95,1.39-3.26-2.22.12-2.67-1.15-3.11-2.59-1.32-4.26-2.75-8.5-4.12-12.75C610.77,245.28,610.6,244.6,610.37,243.79Z"/><path d="M587.26,248.4h-3.78c0-3.3.75-4.24,3.63-4.78a19.65,19.65,0,0,1,8.08.19,3.8,3.8,0,0,1,3.29,3.63c.14,4.45,0,8.9,0,13.49h-3.63l-.39-1.4a2.67,2.67,0,0,0-.66.26c-2.54,1.94-5.35,1.88-8.19,1-2-.65-2.91-2.25-2.95-4.71,0-2.62.82-4.23,2.88-5a10.59,10.59,0,0,1,7-.07,14.27,14.27,0,0,1,1.52.66c.7-3,.37-4.52-1-5.18C591,245.44,588.69,246.2,587.26,248.4Zm3.25,4.67a17.69,17.69,0,0,0-2.53.71,2,2,0,0,0-1,2.45,3,3,0,0,0,1.15,1.87,6.16,6.16,0,0,0,5.11-.06,2.14,2.14,0,0,0,1.34-2.1,2.07,2.07,0,0,0-1.26-2.13A28.19,28.19,0,0,0,590.51,253.07Z"/><path d="M555.2,253H543.79c-.73,2.78-.17,4.36,1.61,5,2.69.9,5,.09,6-2.26h3.64c.21,2.58-.52,4-2.7,4.79a15.09,15.09,0,0,1-10.1,0,3.81,3.81,0,0,1-2.52-3,21.45,21.45,0,0,1-.09-10.2,4.44,4.44,0,0,1,3.31-3.46,16.67,16.67,0,0,1,8.53-.06,4.18,4.18,0,0,1,3.18,3A15,15,0,0,1,555.2,253ZM551,250.36c.23-1.45.34-2.89-1-3.48a6.23,6.23,0,0,0-5.32.07c-1.26.64-1.32,2-1,3.41Z"/><path d="M508,253H496.18c-.59,3,0,4.47,1.76,5,2.71.85,4.9,0,6-2.27h3.68c.07,2.68-.66,4-2.84,4.79a15.2,15.2,0,0,1-9.88,0,3.94,3.94,0,0,1-2.7-3.12,21.94,21.94,0,0,1-.1-10,4.58,4.58,0,0,1,3.66-3.69,17.24,17.24,0,0,1,8.08,0,4.28,4.28,0,0,1,3.46,3.56C507.62,249,507.73,250.77,508,253Zm-4.45-2.63c.09-1.44.28-2.88-1.11-3.48a6.21,6.21,0,0,0-5.31.07c-1.27.65-1.31,2-1.06,3.41Z"/><path d="M732.06,252c-.19,1.65-.3,3.17-.55,4.65-.48,2.76-1.62,3.83-4.32,4.38a20,20,0,0,1-7.6-.1,4.38,4.38,0,0,1-3.82-3.75,25.28,25.28,0,0,1,0-9.73,4.26,4.26,0,0,1,3.58-3.67,20.44,20.44,0,0,1,8.53,0,4.23,4.23,0,0,1,3.62,3.63C731.75,249,731.88,250.54,732.06,252Zm-4.29.33h-.07c0-.55,0-1.11,0-1.66-.2-3.28-1.21-4.19-4.49-4.05a7.61,7.61,0,0,0-1.18.12c-1.21.22-2.17.86-2.22,2.14-.08,2.37,0,4.74.07,7.11a2,2,0,0,0,1.88,1.85,12.55,12.55,0,0,0,2.36.21c2.37-.11,3.09-.77,3.44-3.1C727.69,254.07,727.7,253.19,727.77,252.32Z"/><path d="M247,253c-.47,3.11.1,4.51,1.9,5,2.75.8,4.8,0,6-2.34h3.46c.34,2.38-.3,3.88-2.31,4.69a14.81,14.81,0,0,1-10.55.05,3.85,3.85,0,0,1-2.42-3.07,21.57,21.57,0,0,1-.07-10,4.53,4.53,0,0,1,3.49-3.57,16.94,16.94,0,0,1,8.31,0,4.14,4.14,0,0,1,3.34,3.38c.34,1.77.46,3.59.68,5.46-2.23.67-4.22.29-6.18.36S248.89,253,247,253Zm7.32-2.63c.24-1.29.34-2.45-.7-3.35-.82-.71-4.51-.81-5.54-.15-1.26.8-1.3,2-1.17,3.5Z"/><path d="M760,252.1c-.23,1.76-.38,3.51-.69,5.22a4.35,4.35,0,0,1-3.68,3.61,19.73,19.73,0,0,1-8.31-.06,4.25,4.25,0,0,1-3.55-3.44,24.19,24.19,0,0,1,0-10.2,4.08,4.08,0,0,1,3.28-3.4,19.68,19.68,0,0,1,9,0,4,4,0,0,1,3.33,3.33C759.63,248.77,759.77,250.44,760,252.1Zm-4.32.18h0c0-.55,0-1.11,0-1.67-.15-3.21-1.08-4.08-4.26-4a7.5,7.5,0,0,0-1.42.13c-1.19.24-2.15.86-2.18,2.16-.06,2.37,0,4.74.07,7.1a1.86,1.86,0,0,0,1.68,1.77,11.34,11.34,0,0,0,2.59.27c2.35-.11,3.11-.83,3.42-3.13C755.62,254,755.61,253.16,755.66,252.28Z"/><path d="M392.42,253H381c-.76,2.79-.23,4.36,1.55,5,2.68.91,4.94.11,6-2.25h3.66c.19,2.57-.53,4-2.69,4.77a15.06,15.06,0,0,1-10.11,0,3.69,3.69,0,0,1-2.46-2.74,21.5,21.5,0,0,1-.09-10.66,4.28,4.28,0,0,1,3.22-3.24,16.56,16.56,0,0,1,8.53-.07,4.11,4.11,0,0,1,3.18,2.95A15.81,15.81,0,0,1,392.42,253Zm-11.53-2.64h7.25c.29-3-.33-3.8-3.05-3.89a11.81,11.81,0,0,0-1.19,0C381.21,246.58,380.54,247.41,380.89,250.37Z"/><path d="M669.89,255.73h3.66c.21,2.47-.45,3.89-2.46,4.69a14.76,14.76,0,0,1-10.55,0,3.71,3.71,0,0,1-2.31-2.87,22.85,22.85,0,0,1-.19-9.74,4.77,4.77,0,0,1,4.09-4.11,17.25,17.25,0,0,1,7.83.11,4.12,4.12,0,0,1,3.18,2.95,14.06,14.06,0,0,1,.52,6.17H662.32c-.77,2.88-.23,4.46,1.55,5.07C666.55,258.9,668.83,258.09,669.89,255.73Zm-7.71-5.21c1.7,0,3.43,0,5.17,0,.69,0,1.39-.08,2.06-.13.35-3-.28-3.8-3-3.9a11.81,11.81,0,0,0-1.19,0C662.53,246.57,661.86,247.4,662.18,250.52Z"/><path d="M320.63,252c-.22-2.36.69-4.64-1.86-5.64-2.25-.88-4.09-.11-5.47,2.1h-3.73c-.15-3.19.59-4.23,3.42-4.79a19.69,19.69,0,0,1,8.09.14,3.88,3.88,0,0,1,3.4,3.8c.12,4.37,0,8.76,0,13.32h-3.66l-.32-1.27c-.15,0-.35-.07-.44,0-2.32,1.87-5,2-7.72,1.34a4.48,4.48,0,0,1-3.7-4.64c-.13-2.93.86-4.67,3.31-5.42a10,10,0,0,1,7.25.32C319.59,251.4,319.91,251.59,320.63,252Zm-4,1.11a18.79,18.79,0,0,0-2.56.63,2.12,2.12,0,0,0-1.21,2.36c0,.91.23,1.76,1.21,2.1a6.32,6.32,0,0,0,5.08-.16,2.82,2.82,0,0,0,1.31-2,2.91,2.91,0,0,0-1.16-2.1A8.59,8.59,0,0,0,316.66,253.08Z"/><path d="M429.18,261h-3.64c-.13-.46-.28-.94-.46-1.56a8.72,8.72,0,0,1-8,1.59c-2.51-.62-3.7-2.16-3.77-4.84-.07-2.9,1-4.6,3.49-5.3a10,10,0,0,1,8.08.89c.71-2.88.29-4.67-1.19-5.33-2.15-1-4.36-.21-5.74,2h-3.69c-.27-3.08.52-4.23,3.32-4.8a19,19,0,0,1,8.09.13c2.23.52,3.38,1.64,3.47,4C429.29,252.07,429.18,256.38,429.18,261Zm-8.07-7.88,0,.17c-.24,0-.48,0-.71,0-1.93.18-2.8,1-2.84,2.58s.63,2.51,2.66,2.64a8.46,8.46,0,0,0,3.51-.44,3.08,3.08,0,0,0,1.46-2,1.93,1.93,0,0,0-1.29-2.31A20.87,20.87,0,0,0,421.11,253.09Z"/><path d="M198.53,253H186.91c-.71,2.64-.22,4.25,1.37,4.9a4.72,4.72,0,0,0,6.28-2.14h3.65c.08,2.82-.68,4.11-3.06,4.89a15.6,15.6,0,0,1-9.44,0,3.76,3.76,0,0,1-2.73-2.78,22.05,22.05,0,0,1-.13-10.68,4.35,4.35,0,0,1,3.4-3.35,16.94,16.94,0,0,1,8.07-.09A4.31,4.31,0,0,1,198,247.4C198.24,249.11,198.32,250.85,198.53,253Zm-11.74-2.62H194c.47-3-.17-3.79-2.87-3.9h-.95C187.18,246.52,186.61,247.16,186.79,250.38Z"/><path d="M655.75,236.21v3.91h-7.2c-.24,2.52-.1,4.81-.12,7.09s0,4.47,0,6.71v7h-4.71V240.3h-7v-4.09Z"/><path d="M328.43,255.83h3.51a4.79,4.79,0,0,0,6.67,2.31,2.08,2.08,0,0,0,1.38-2.27,2,2,0,0,0-1.85-1.87c-1-.14-2.08-.07-3.11-.18a18.87,18.87,0,0,1-4-.63,3.94,3.94,0,0,1-2.1-1.75,6.86,6.86,0,0,1-.16-5.58,3.18,3.18,0,0,1,2.5-2,20.54,20.54,0,0,1,9.26-.08c2.33.54,3.06,1.74,2.83,4.52H339.9a4.72,4.72,0,0,0-6.11-1.81,2.12,2.12,0,0,0-1.2,2.36c.09,1,.79,1.31,1.63,1.42s1.59.16,2.39.23,1.92.06,2.86.19c4.23.6,5.72,2.94,4.57,7.09a4.07,4.07,0,0,1-3.11,3,19.51,19.51,0,0,1-9.72,0C329,260.21,328.24,258.85,328.43,255.83Z"/><path d="M468,261h-4.07v-4.6c0-2.16,0-4.32,0-6.48s-.71-3-2.64-3.26c-2.24-.25-4.1.74-4.6,2.56a9.46,9.46,0,0,0-.21,2.38c0,3,0,6.06,0,9.3h-4V243.74l3.62-.17.57,2c2.31-2.32,5-2.62,7.84-1.83a4.23,4.23,0,0,1,3.46,4.09C468.11,252.09,468,256.39,468,261Z"/><path d="M75.38,243.82v6.58c0,1.44,0,2.88,0,4.32.07,2.18.55,2.87,2.13,3.23a4,4,0,0,0,4.54-1.8,7.25,7.25,0,0,0,.61-2.76c.08-2.4,0-4.8,0-7.19,0-.78.07-1.56.11-2.47h3.69c.5,1.79.57,14.77.08,17.23H83l-.24-1.79c-.21.06-.4.05-.49.14-2.22,2.34-4.93,2.36-7.76,1.55a4.09,4.09,0,0,1-2.78-2.77,6.4,6.4,0,0,1-.41-1.86c0-4.06,0-8.12,0-12.41Z"/><path d="M511.68,243.72h3.56c.14.58.26,1.1.41,1.68a2.08,2.08,0,0,0,.62-.28c2.33-2.22,5.06-2.16,7.84-1.25a4,4,0,0,1,2.92,3.75c.11,4.38,0,8.76,0,13.3h-3.84c0-.91-.12-1.76-.12-2.61,0-2.79,0-5.59-.07-8.39-.08-2.4-.85-3.17-2.89-3.31-2.4-.17-4.14.95-4.51,3a16.44,16.44,0,0,0-.1,2.63c0,2.86,0,5.72,0,8.7h-3.77C511.24,259.23,511.15,246.22,511.68,243.72Z"/><path d="M266.21,243.57l.3,1.82c.25-.08.52-.09.65-.23,1.73-1.81,3.92-2,6.21-1.74,3.12.42,4.62,2.1,4.71,5.34s0,6.72,0,10.08c0,.63-.08,1.25-.13,2.06h-3.8c0-.76-.1-1.53-.11-2.3,0-2.88,0-5.76,0-8.64-.07-2.3-.78-3.1-2.64-3.33-2.36-.3-4.21.72-4.71,2.72a10.4,10.4,0,0,0-.2,2.37c0,3,0,6,0,9.21H262.4V243.77Z"/><path d="M700,260.94h-3.91V243.76h3.66c.08.58.16,1.12.26,1.74.21-.06.47-.06.59-.19a6,6,0,0,1,4.7-2c4.32-.11,6.4,1.85,6.44,6.15,0,3.52,0,7,0,10.55a6.05,6.05,0,0,1-.18.86h-4v-5.26c0-1.92,0-3.84,0-5.75-.07-2.23-.78-3-2.68-3.26-2.26-.26-4.12.72-4.57,2.55a13.9,13.9,0,0,0-.3,3.09C700,255.05,700,257.85,700,260.94Z"/><path d="M297.34,249.45h-3.69c-.7-2.27-2.43-3.17-4.88-2.81-1.73.25-2.51.84-2.63,2.55a46,46,0,0,0,0,6.21c.12,1.66.73,2.17,2.4,2.5a7.71,7.71,0,0,0,1.66.15c2.38,0,2.82-.4,3.36-2.76a4.92,4.92,0,0,1,.31-.77h3.44c.78,3.91-.5,5.82-4.26,6.52a17.8,17.8,0,0,1-6.9-.1,4.54,4.54,0,0,1-3.9-3.71,22.65,22.65,0,0,1,0-9.73,4.32,4.32,0,0,1,3.86-3.73,29.55,29.55,0,0,1,6.64-.18C296.37,244,297.34,245.41,297.34,249.45Z"/><path d="M688.9,254.47h3.39c.92,3.57-.31,5.72-3.66,6.47a17.15,17.15,0,0,1-7.61,0,4.49,4.49,0,0,1-3.72-3.6,22.37,22.37,0,0,1,0-10,4.25,4.25,0,0,1,3.75-3.55,28.71,28.71,0,0,1,6.41-.25c3.77.39,4.78,1.72,4.95,5.95l-3.59.16c-1.46-2.75-2.91-3.48-5.44-2.95-1.22.26-2.13.91-2.18,2.19-.11,2.23-.11,4.47,0,6.69a2.22,2.22,0,0,0,2.08,2.26,12.81,12.81,0,0,0,2.13.21c2.25-.05,2.67-.43,3.18-2.68A8.87,8.87,0,0,1,688.9,254.47Z"/><path d="M67.69,249.51H64.24c-1.67-2.69-3.11-3.41-5.6-2.79-1.1.27-2,.85-2,2.06q-.12,3.45,0,6.9a2.18,2.18,0,0,0,2.15,2.18,12.61,12.61,0,0,0,2.37.17c2-.12,2.38-.52,2.82-2.54.05-.23.1-.47.17-.7,0-.06.11-.1.3-.28h3.34c.77,3.76-.52,5.76-4,6.48a18,18,0,0,1-7.13,0,4.61,4.61,0,0,1-3.94-3.69,22,22,0,0,1,0-9.73,4.35,4.35,0,0,1,3.84-3.75,29.07,29.07,0,0,1,6.65-.19C66.77,244,67.77,245.45,67.69,249.51Z"/><path d="M108.24,254.46h3c1.17,3.77-.23,6.13-4,6.75a10.22,10.22,0,0,1-2.14.12c-3.47-.21-5-1.85-5.09-5.33,0-2.24,0-4.47,0-6.71v-2.43l-2.17-.43c0-.79-.07-1.56-.11-2.46l2.17-.71.21-3.48H104c.09,1.1.18,2.26.29,3.76h6.48v3.07h-6.49c0,1.22-.12,2.23-.12,3.23,0,2-.05,4,0,6,.06,1.39.75,2.14,1.75,2.21s1.77-.64,2.09-1.92A14.45,14.45,0,0,0,108.24,254.46Z"/><path d="M282.07,270.19c4.35,0,8.49-.1,12.62.05a3.53,3.53,0,0,1,3.57,3.28,29.59,29.59,0,0,1,.07,6.17,3.62,3.62,0,0,1-3.5,3.37c-2.22.22-4.45.27-6.68.36-1.1.05-2.2,0-3.62,0v8.36a4.23,4.23,0,0,1-1,.32c-.46,0-.92-.07-1.5-.12Zm2.57,1.87v9.25c2.15,0,4.13,0,6.11,0,5.12-.08,6.18-1.34,5.47-6.44-.27-1.94-1-2.7-3-2.78C290.49,272,287.7,272.06,284.64,272.06Z"/><path d="M337.55,292h-2c-.05-.86-.13-1.71-.14-2.56-.05-2.55,0-5.11-.12-7.66s-.89-3.36-3-3.56c-2.53-.24-4.48.94-4.94,3.16a17.59,17.59,0,0,0-.21,3.33c0,2.38,0,4.76,0,7.23l-2,.14V277c1.58-.47,1.58-.47,2.39,1.12,2.82-2.28,7-2.55,9.72.52a6.83,6.83,0,0,1,6.26-2.18c2.45.24,4.19,1.62,4.32,4,.21,3.8.06,7.62.06,11.53h-2.15v-3c0-2.48,0-5,0-7.43s-.89-3.25-3.36-3.31a8.63,8.63,0,0,0-1.44.07c-2,.27-2.82,1-3.16,3a20.74,20.74,0,0,0-.21,3.34C337.53,287,337.55,289.4,337.55,292Z"/><path d="M13.65,270.12h2.06a6.55,6.55,0,0,1,.3,1.35c0,4.39,0,8.79,0,13.18,0,1,.12,2.07.23,3.1A2.39,2.39,0,0,0,18.39,290a21,21,0,0,0,8.09-.05,2.3,2.3,0,0,0,2-2.1,23.08,23.08,0,0,0,.3-3.09c0-4,0-8,0-12v-2.59l2.4-.13v2.56c0,4.24,0,8.47,0,12.71,0,5.33-1.27,6.67-6.58,6.93a38.61,38.61,0,0,1-6.45-.2c-2.89-.35-4.36-1.7-4.44-4.47C13.53,281.86,13.65,276.12,13.65,270.12Z"/><path d="M443.27,260.9V236.25h4.24c.44,1.61.57,21.27.12,24.65Z"/><path d="M105.73,291.86c-1.18.56-1.93.37-2.21-1-2,1.59-4.31,1.68-6.66,1.38a4,4,0,0,1-3.76-3.16,19.51,19.51,0,0,1-.07-9.24,4.19,4.19,0,0,1,4-3.3,8.41,8.41,0,0,1,6.7,1.57v-7.95h2ZM94.82,284c.08,1.17.09,2.21.23,3.24.29,2.25,1.14,3.07,3.41,3.23a11,11,0,0,0,2.62-.18,2.52,2.52,0,0,0,2.14-2,16.19,16.19,0,0,0,.15-7.36,3.1,3.1,0,0,0-2.79-2.58,11.41,11.41,0,0,0-2.86,0,2.8,2.8,0,0,0-2.58,2.46C95,281.92,94.91,283,94.82,284Z"/><path d="M69.59,278.18v-8l2.08-.1v21.73c-1.12.64-1.88.39-2.28-1-2,1.62-4.31,1.67-6.66,1.36A4,4,0,0,1,59,289a19.91,19.91,0,0,1-.11-9A4.22,4.22,0,0,1,63,276.52C65.19,276.28,67.42,276.28,69.59,278.18Zm-8.85,6.09c.09,1.1.1,2.15.25,3.17.3,2,1.07,2.82,3.09,3a12.38,12.38,0,0,0,2.85-.12,2.51,2.51,0,0,0,2.19-2,15.72,15.72,0,0,0,.12-7.59,2.92,2.92,0,0,0-2.44-2.34,10,10,0,0,0-2.62-.15c-2,.16-2.89,1-3.19,2.93C60.83,282.25,60.82,283.29,60.74,284.27Z"/><path d="M559.17,243.72h3.7c.13.48.24.92.39,1.49,2.64-2,5.41-3.22,8-.33,1.27,1.41,1.28,3.33.93,5.31h-3.47c-.09-.48-.18-.93-.27-1.38-.3-1.58-.8-2.13-2-2.24a2.61,2.61,0,0,0-2.84,1.74,9.14,9.14,0,0,0-.47,2.8c-.07,2.47,0,4.94,0,7.41,0,.78-.08,1.55-.13,2.44h-3.85Z"/><path d="M127.69,292.08h-3.6l-7.78-21.76c2.43-.43,2.45-.43,3.14,1.52,1.9,5.34,3.77,10.69,5.66,16,.18.51.4,1,.78,1.94.39-.95.66-1.54.88-2.15,1.82-5.27,3.63-10.56,5.47-15.83.68-1.95.7-1.95,3.14-1.5Z"/><path d="M205,270.05v21.89c-1.05.32-1.9.44-2.18-1.08a8.85,8.85,0,0,1-6.6,1.38,4.22,4.22,0,0,1-4-3.52,19.77,19.77,0,0,1-.05-8.56,4.29,4.29,0,0,1,4.16-3.66,8.53,8.53,0,0,1,6.64,1.58v-7.84Zm-11,14.23c.12,1.13.18,2.33.39,3.51a2.74,2.74,0,0,0,2.66,2.62,13.67,13.67,0,0,0,2.86,0,2.69,2.69,0,0,0,2.66-2.6,37.78,37.78,0,0,0,.1-6.2c-.23-2.5-1.54-3.37-4.34-3.36s-3.68.81-4.05,3.35C194.18,282.46,194.12,283.34,194,284.28Z"/><path d="M735.64,236.15h3.85v24.76h-3.85Z"/><path d="M91.45,236.14h3.81v24.69a4.92,4.92,0,0,1-1,.22c-.88,0-1.75,0-2.58,0C91.16,259.28,91,241.05,91.45,236.14Z"/><path d="M86.27,283.78a6.12,6.12,0,0,0,.18-.75c.06-4.42-1.92-5.95-6.19-4.63A4.59,4.59,0,0,0,78.32,280c-.66.81-.58.88-2,.72-.19-2.59.43-3.72,2.82-4a31.14,31.14,0,0,1,6.4.12,3.15,3.15,0,0,1,2.91,3,20.82,20.82,0,0,1,.28,2.61c0,3.1,0,6.2,0,9.28a1.62,1.62,0,0,1-2.6-.6,9.68,9.68,0,0,1-7,1c-2.5-.39-3.69-1.89-3.74-4.46,0-3,.85-4.21,3.56-4.76A11.63,11.63,0,0,1,86.27,283.78Zm-4.61.63a18.48,18.48,0,0,0-2.4.33c-1.35.35-1.54,1.46-1.55,2.65,0,1.7.37,2.57,1.57,2.88a9,9,0,0,0,5.43-.19,2.59,2.59,0,0,0,1.77-3,2.39,2.39,0,0,0-2.23-2.41A22.66,22.66,0,0,0,81.66,284.41Z"/><path d="M314.34,291.78c-1.25.7-2,.35-2.54-.67-2.19,1.42-4.58,1.43-7,1.06s-3.7-1.93-3.75-4.49c-.05-2.95.9-4.2,3.63-4.74a11.84,11.84,0,0,1,7.38.89c0-1,.05-1.87,0-2.69-.17-2.1-.89-2.8-3-2.94a15.9,15.9,0,0,0-2.39.05A2.7,2.7,0,0,0,304,280c-.4,1.29-1.16,1-2,.81-.11-2.78.49-3.81,2.9-4.11a23.69,23.69,0,0,1,5.95.06c2.26.31,3.11,1.41,3.43,3.69a13.5,13.5,0,0,1,.07,1.91Zm-6.51-7.33a19.55,19.55,0,0,0-2.19.12c-1.66.27-2.23,1-2.25,2.82s.56,2.84,2.31,3a16,16,0,0,0,4.26-.17,2.56,2.56,0,0,0,2.22-3c-.06-1.62-.74-2.39-2.48-2.69C309.08,284.48,308.43,284.49,307.83,284.45Z"/><path d="M137.7,280.73c.21-3,.85-3.91,3.45-4.15a22.84,22.84,0,0,1,5.48.13c2.27.34,3.16,1.39,3.45,3.67a28.6,28.6,0,0,1,.1,3.59c0,2.63,0,5.26,0,7.8-1.19.63-2,.47-2.53-.65a9.63,9.63,0,0,1-6.94,1.06c-2.5-.38-3.74-1.9-3.8-4.45-.06-3,.87-4.21,3.57-4.78a12.28,12.28,0,0,1,7.23.73c1-5.72-1.82-6-6.09-5.22a2.81,2.81,0,0,0-1.72,1.47C139.42,281.08,138.76,281,137.7,280.73Zm5.74,3.71c-.67,0-1.31,0-1.94.13-1.68.26-2.24,1-2.27,2.8,0,2,.52,2.85,2.27,3a15.27,15.27,0,0,0,4.27-.16A2.55,2.55,0,0,0,148,287.3c0-1.62-.72-2.41-2.45-2.71C144.86,284.47,144.13,284.49,143.44,284.44Z"/><path d="M222.42,284.81h-11c-.47,3.66.12,5.07,2.17,5.55,3.65.86,5.78,0,6.84-2.74h1.6a2.58,2.58,0,0,1,.24.71c-.12,2.31-1,3.49-3.21,3.74a33,33,0,0,1-6.21,0,3.76,3.76,0,0,1-3.62-3.27,22.28,22.28,0,0,1,0-8.8c.38-1.84,1.47-3.14,3.34-3.27a40.93,40.93,0,0,1,6.64.12,3,3,0,0,1,2.68,2.69C222.15,281.2,222.23,282.85,222.42,284.81Zm-11.07-1.71c2.92-.05,5.73.18,8.5-.13.3-3.76-.47-4.65-3.81-4.73C212.18,278.14,211.2,279.06,211.35,283.1Z"/><path d="M365.21,292.38l-2.88-1a9.9,9.9,0,0,1-6.61.78,4.18,4.18,0,0,1-3.76-4.49c0-2.87,1-4.2,3.64-4.74a11.6,11.6,0,0,1,7.18.79,6.54,6.54,0,0,0,0-3.72,2.43,2.43,0,0,0-.73-1.19c-1.56-1.36-6-.66-7.1,1.08-.61.94-.61.94-2,.76-.2-2.57.33-3.59,2.61-3.92a22.64,22.64,0,0,1,5.93-.07c2.5.3,3.58,1.46,3.67,3.95C365.32,284.35,365.21,288.09,365.21,292.38Zm-6.72-7.94a19.08,19.08,0,0,0-2.13.16c-1.49.29-2,1.07-2.08,2.75s.56,2.85,2.05,3a17.4,17.4,0,0,0,4.73-.18c1.55-.3,2.17-1.49,2-3.08s-.78-2.21-2.42-2.49A21.74,21.74,0,0,0,358.49,284.44Z"/><path d="M253.42,292.32l-3-.9a9.72,9.72,0,0,1-6.68.72,4.92,4.92,0,0,1-2.56-8,4.56,4.56,0,0,1,2.06-1.09,11.84,11.84,0,0,1,7.66.57c.11-.16.18-.23.19-.3.45-4.63-1.81-6.46-6.21-4.9a3.81,3.81,0,0,0-1.83,1.7c-.55,1-1.16.85-1.93.56-.18-2.63.35-3.67,2.65-4a30.48,30.48,0,0,1,6.19,0c2,.16,3.07,1.54,3.36,3.49a15.18,15.18,0,0,1,.1,1.91Zm-6.72-7.88a19.08,19.08,0,0,0-2.15.16c-1.5.28-2.06,1-2.1,2.73s.55,2.87,2,3a17,17,0,0,0,4.73-.17c1.55-.29,2.17-1.48,2-3.06s-.76-2.22-2.4-2.5A19.08,19.08,0,0,0,246.7,284.44Z"/><path d="M180.21,284.82h-10.9c-.62,3.37,0,5,2,5.53,3.57.91,5.91,0,6.86-2.7l1.55-.09c.14.28.33.49.33.7,0,2.29-.9,3.55-3.12,3.8a33,33,0,0,1-6.44,0,3.66,3.66,0,0,1-3.44-3.17,21.11,21.11,0,0,1,0-9,3.56,3.56,0,0,1,3.22-3.1,43.3,43.3,0,0,1,6.64.07,3.1,3.1,0,0,1,2.82,2.86C180,281.27,180.05,282.86,180.21,284.82ZM169.07,283h8.56c.29-1.56.53-3.18-.85-4a6.67,6.67,0,0,0-6.22-.2C168.88,279.49,169,281.18,169.07,283Z"/><path d="M257.16,287.45h1.73c.44.88.65,2,1.32,2.45a7.76,7.76,0,0,0,3.2.67,8.68,8.68,0,0,0,2.15-.18,2.37,2.37,0,0,0,2.32-2.74c-.07-1.51-.78-2.22-2.42-2.36s-3.2-.14-4.77-.37a4.45,4.45,0,0,1-2.82-7,3.14,3.14,0,0,1,1.54-1,14.13,14.13,0,0,1,7.79,0,3.1,3.1,0,0,1,2.46,3.5l-1.74.2c-1.12-2.24-1.18-2.29-3.47-2.36a21,21,0,0,0-2.63,0c-1.77.16-2.31.76-2.29,2.39a2.21,2.21,0,0,0,2.3,2.49c1.5.16,3,.19,4.53.35,2.59.28,3.81,1.66,3.85,4.27s-1.06,4.11-3.7,4.35a31.34,31.34,0,0,1-5.73,0C257.92,291.9,257,290.7,257.16,287.45Z"/><path d="M369,287.46h1.7c.52.91.81,2.11,1.55,2.56a10.21,10.21,0,0,0,4.9.41c1.91-.25,2.65-1,2.58-2.75s-.78-2.26-2.62-2.4c-1.52-.11-3-.14-4.54-.35a4.46,4.46,0,0,1-2.85-7,2.64,2.64,0,0,1,1.3-1,13.55,13.55,0,0,1,8.47.11,2.93,2.93,0,0,1,2,3.31l-1.94.27c-.21-2.26-1.76-2.48-3.48-2.43-.88,0-1.76,0-2.63.08-1.59.19-2.09.79-2.07,2.35s.62,2.31,2,2.48c1.58.2,3.18.22,4.77.38,2.61.27,3.82,1.63,3.86,4.25s-1,4.11-3.67,4.37a31.23,31.23,0,0,1-5.72,0C369.77,291.9,368.9,290.73,369,287.46Z"/><path d="M409.37,261H406c-.49-1.77-.63-21.27-.18-24.77h3.42C409.72,237.91,409.87,257.55,409.37,261Z"/><path d="M37.73,278.11c2.39-2,5-1.91,7.65-1.4a3.11,3.11,0,0,1,2.69,2.68,13,13,0,0,1,.31,2.13c0,3.43,0,6.85,0,10.45l-1.92.12a3.63,3.63,0,0,1-.25-.8c0-3,0-6.08,0-9.12,0-2.84-.65-3.65-2.81-3.9-3-.35-5.07.75-5.63,3.19a13.54,13.54,0,0,0-.23,2.85c0,2.55,0,5.09,0,7.72h-2V277.14C37,276.4,37,276.4,37.73,278.11Z"/><path d="M235,243.71h3.83v17.17H235Z"/><path d="M787.36,260.94h-3.8V243.8h3.8Z"/><path d="M578.94,260.94h-4.05V243.75h4C579,249.42,578.91,255.1,578.94,260.94Z"/><path d="M535.42,261h-3.81V243.72h3.6C535.71,245.47,535.87,256.75,535.42,261Z"/><path d="M304.83,261H301c-.07-5.75,0-11.42,0-17.24h3.88Z"/><path d="M236.48,292h-2V270.23l2-.17Z"/><path d="M162.88,270.19V292H161V270.19Z"/><path d="M320.66,292h-1.81V270.18h1.81Z"/><path d="M154.67,270.18h1.85v21.76l-1.85.13Z"/><path d="M52.65,276.8l2-.12v15.19a2.48,2.48,0,0,1-.65.24,11.56,11.56,0,0,1-1.3-.11Z"/><path d="M575.43,241.52l-.88-1.69,5.82-3.84,1.54,2.73Z"/><path d="M784,241.53l-.89-1.68,5.78-3.86,1.56,2.7Z"/><path d="M535.45,239.29h-3.9v-3.08h3.9Z"/><path d="M238.9,236.26v3H235v-3Z"/><path d="M301.06,239.26v-3h3.71v3Z"/><path d="M52.68,270.17h1.94v2.11l-1.94.17Z"/><path class="cls-1" d="M483.89,252.49c-.08.68-.14,1.72-.33,2.73-.37,1.93-.88,2.41-2.83,2.63a11.88,11.88,0,0,1-2.38-.08,2.19,2.19,0,0,1-2.15-2.17c-.1-2.22-.1-4.45,0-6.67a2.27,2.27,0,0,1,2.16-2.2,9.46,9.46,0,0,1,2.38-.08c1.84.19,2.48.81,2.87,2.63.08.39.15.79.19,1.18C483.83,251,483.85,251.58,483.89,252.49Z"/><path class="cls-1" d="M767.08,252.09c0-.72-.06-1.44,0-2.15.23-2.53,1.12-3.32,3.7-3.34,2.77,0,3.8.77,4,3.32a30.52,30.52,0,0,1,0,4.78c-.19,2.29-1,3.05-3.35,3.21a7.68,7.68,0,0,1-1.66-.09c-1.67-.26-2.22-.74-2.52-2.4-.2-1.09-.19-2.22-.28-3.33Z"/><path class="cls-1" d="M360.63,252c.08-.84.13-1.81.28-2.75a2.61,2.61,0,0,1,2.62-2.61c3.18-.49,4.72.61,5,3.82a35.2,35.2,0,0,1-.21,5,2.52,2.52,0,0,1-2.48,2.46,8.62,8.62,0,0,1-2.38,0,2.56,2.56,0,0,1-2.48-2.49c-.08-.47-.11-.95-.15-1.43C360.74,253.4,360.69,252.77,360.63,252Z"/><path class="cls-1" d="M145.19,252.25c-.06,1-.05,2-.18,2.95-.27,2-1.2,2.76-3.45,2.88s-3.65-.59-3.88-2.57a29.32,29.32,0,0,1-.05-6.42c.21-1.94,1.32-2.53,3.68-2.49s3.36.75,3.68,2.62A26.56,26.56,0,0,1,145.19,252.25Z"/><path class="cls-1" d="M174.5,252.11c-.06,1.13-.08,1.85-.14,2.56-.1,1.23-.26,2.46-1.59,3a5.13,5.13,0,0,1-4.84-.26,2.41,2.41,0,0,1-.88-1.36,16.19,16.19,0,0,1-.09-7.36,2.27,2.27,0,0,1,1.93-1.88,9.23,9.23,0,0,1,2.62-.12,2.74,2.74,0,0,1,2.8,2.74C174.46,250.43,174.46,251.48,174.5,252.11Z"/><path class="cls-1" d="M799.23,258.63a18.35,18.35,0,0,1-2-.27,2.11,2.11,0,0,1-1.91-2.31c0-1.29.45-2.29,1.68-2.52a12.08,12.08,0,0,1,4,0,2.43,2.43,0,0,1,0,4.8C800.42,258.44,799.8,258.53,799.23,258.63Z"/><path class="cls-1" d="M121.55,253.21a11.73,11.73,0,0,1,2,.36,2.33,2.33,0,0,1,1.79,2.48,2.21,2.21,0,0,1-1.85,2.17,12.53,12.53,0,0,1-3.28.25c-1.87-.15-2.54-.89-2.58-2.45s.83-2.5,2.64-2.73C120.58,253.25,120.9,253.25,121.55,253.21Z"/><path class="cls-1" d="M40.39,253.13a19,19,0,0,1,2.34.52,2.23,2.23,0,0,1,1.59,2.41,2,2,0,0,1-1.65,2.08,20.71,20.71,0,0,1-4.24.17c-1.26-.06-1.7-1.05-1.8-2.18a2.24,2.24,0,0,1,1.43-2.5A14.59,14.59,0,0,1,40.39,253.13Z"/><path class="cls-1" d="M590.51,253.07a28.19,28.19,0,0,1,2.78.74,2.07,2.07,0,0,1,1.26,2.13,2.14,2.14,0,0,1-1.34,2.1,6.16,6.16,0,0,1-5.11.06,3,3,0,0,1-1.15-1.87,2,2,0,0,1,1-2.45A17.69,17.69,0,0,1,590.51,253.07Z"/><path class="cls-1" d="M551,250.36H543.6c-.27-1.41-.21-2.77,1-3.41a6.23,6.23,0,0,1,5.32-.07C551.33,247.47,551.22,248.91,551,250.36Z"/><path class="cls-1" d="M503.54,250.36h-7.48c-.25-1.4-.21-2.76,1.06-3.41a6.21,6.21,0,0,1,5.31-.07C503.82,247.48,503.63,248.92,503.54,250.36Z"/><path class="cls-1" d="M727.77,252.32c-.07.87-.08,1.75-.21,2.61-.35,2.33-1.07,3-3.44,3.1a12.55,12.55,0,0,1-2.36-.21,2,2,0,0,1-1.88-1.85c-.11-2.37-.15-4.74-.07-7.11.05-1.28,1-1.92,2.22-2.14a7.61,7.61,0,0,1,1.18-.12c3.28-.14,4.29.77,4.49,4.05,0,.55,0,1.11,0,1.66Z"/><path class="cls-1" d="M254.36,250.37H247c-.13-1.45-.09-2.7,1.17-3.5,1-.66,4.72-.56,5.54.15C254.7,247.92,254.6,249.08,254.36,250.37Z"/><path class="cls-1" d="M755.66,252.28c0,.88,0,1.76-.16,2.62-.31,2.3-1.07,3-3.42,3.13a11.34,11.34,0,0,1-2.59-.27,1.86,1.86,0,0,1-1.68-1.77c-.09-2.36-.13-4.73-.07-7.1,0-1.3,1-1.92,2.18-2.16a7.5,7.5,0,0,1,1.42-.13c3.18-.07,4.11.8,4.26,4,0,.56,0,1.12,0,1.67Z"/><path class="cls-1" d="M380.89,250.37c-.35-3,.32-3.79,3-3.89a11.81,11.81,0,0,1,1.19,0c2.72.09,3.34.85,3.05,3.89Z"/><path class="cls-1" d="M662.18,250.52c-.32-3.12.35-4,3-4a11.81,11.81,0,0,1,1.19,0c2.73.1,3.36.88,3,3.9-.67.05-1.37.12-2.06.13C665.61,250.53,663.88,250.52,662.18,250.52Z"/><path class="cls-1" d="M316.66,253.08a8.59,8.59,0,0,1,2.67.81,2.91,2.91,0,0,1,1.16,2.1,2.82,2.82,0,0,1-1.31,2,6.32,6.32,0,0,1-5.08.16c-1-.34-1.17-1.19-1.21-2.1a2.12,2.12,0,0,1,1.21-2.36A18.79,18.79,0,0,1,316.66,253.08Z"/><path class="cls-1" d="M421.11,253.09a20.87,20.87,0,0,1,2.75.69,1.93,1.93,0,0,1,1.29,2.31,3.08,3.08,0,0,1-1.46,2,8.46,8.46,0,0,1-3.51.44c-2-.13-2.69-.9-2.66-2.64s.91-2.4,2.84-2.58c.23,0,.47,0,.71,0Z"/><path class="cls-1" d="M186.79,250.38c-.18-3.22.39-3.86,3.36-3.91h.95c2.7.11,3.34.94,2.87,3.9Z"/><path class="cls-1" d="M284.64,272.06c3.06,0,5.85-.08,8.63,0,2,.08,2.68.84,3,2.78.71,5.1-.35,6.36-5.47,6.44-2,0-4,0-6.11,0Z"/><path class="cls-1" d="M94.82,284c.09-1,.13-2.11.32-3.21a2.8,2.8,0,0,1,2.58-2.46,11.41,11.41,0,0,1,2.86,0,3.1,3.1,0,0,1,2.79,2.58,16.19,16.19,0,0,1-.15,7.36,2.52,2.52,0,0,1-2.14,2,11,11,0,0,1-2.62.18c-2.27-.16-3.12-1-3.41-3.23C94.91,286.24,94.9,285.2,94.82,284Z"/><path class="cls-1" d="M60.74,284.27c.08-1,.09-2,.25-3,.3-1.94,1.2-2.77,3.19-2.93a10,10,0,0,1,2.62.15,2.92,2.92,0,0,1,2.44,2.34,15.72,15.72,0,0,1-.12,7.59,2.51,2.51,0,0,1-2.19,2,12.38,12.38,0,0,1-2.85.12c-2-.2-2.79-1-3.09-3C60.84,286.42,60.83,285.37,60.74,284.27Z"/><path class="cls-1" d="M194,284.28c.09-.94.15-1.82.28-2.69.37-2.54,1.36-3.34,4.05-3.35s4.11.86,4.34,3.36a37.78,37.78,0,0,1-.1,6.2,2.69,2.69,0,0,1-2.66,2.6,13.67,13.67,0,0,1-2.86,0,2.74,2.74,0,0,1-2.66-2.62C194.21,286.61,194.15,285.41,194,284.28Z"/><path class="cls-1" d="M81.66,284.41a22.66,22.66,0,0,1,2.59.23,2.39,2.39,0,0,1,2.23,2.41,2.59,2.59,0,0,1-1.77,3,9,9,0,0,1-5.43.19c-1.2-.31-1.59-1.18-1.57-2.88,0-1.19.2-2.3,1.55-2.65A18.48,18.48,0,0,1,81.66,284.41Z"/><path class="cls-1" d="M307.83,284.45c.6,0,1.25,0,1.87.13,1.74.3,2.42,1.07,2.48,2.69a2.56,2.56,0,0,1-2.22,3,16,16,0,0,1-4.26.17c-1.75-.16-2.33-1.06-2.31-3s.59-2.55,2.25-2.82A19.55,19.55,0,0,1,307.83,284.45Z"/><path class="cls-1" d="M143.44,284.44c.69.05,1.42,0,2.12.15,1.73.3,2.41,1.09,2.45,2.71a2.55,2.55,0,0,1-2.24,2.92,15.27,15.27,0,0,1-4.27.16c-1.75-.16-2.3-1-2.27-3,0-1.81.59-2.54,2.27-2.8C142.13,284.47,142.77,284.48,143.44,284.44Z"/><path class="cls-1" d="M211.35,283.1c-.15-4,.83-5,4.69-4.86,3.34.08,4.11,1,3.81,4.73C217.08,283.28,214.27,283.05,211.35,283.1Z"/><path class="cls-1" d="M358.49,284.44a21.74,21.74,0,0,1,2.17.15c1.64.28,2.29,1,2.42,2.49s-.47,2.78-2,3.08a17.4,17.4,0,0,1-4.73.18c-1.49-.14-2.09-1.2-2.05-3s.59-2.46,2.08-2.75A19.08,19.08,0,0,1,358.49,284.44Z"/><path class="cls-1" d="M246.7,284.44a19.08,19.08,0,0,1,2.15.16c1.64.28,2.28,1,2.4,2.5s-.49,2.77-2,3.06a17,17,0,0,1-4.73.17c-1.48-.13-2.07-1.22-2-3s.6-2.45,2.1-2.73A19.08,19.08,0,0,1,246.7,284.44Z"/><path class="cls-1" d="M169.07,283c0-1.8-.19-3.49,1.49-4.22a6.67,6.67,0,0,1,6.22.2c1.38.84,1.14,2.46.85,4Z"/></g></svg>