<svg id="Capa_1" data-name="Capa 1" xmlns="http://www.w3.org/2000/svg" viewBox="0 0 810.49 212.24"><title>LOGOTIPO-FCITEC_NEGRO-PARA-FONDO-CLARO</title><path d="M439.74,175.83c0,1.29-.05,2.31,0,3.32.14,2.8.34,5.59.5,8.38.13,2.31.2,4.63.34,6.94a7.71,7.71,0,0,1-1.51,5.64,3.26,3.26,0,0,1-3.61,1.24,5.17,5.17,0,0,1-1.57-.57c-2.91-1.9-6-1.78-9.26-1.13l-.24,0c-3.52,1.21-5.76-.92-7.87-3.14a4.31,4.31,0,0,1-.66-2.24c-.23-1.67-.34-3.34-.55-5a11.14,11.14,0,0,0-2.33-5.95c-1.72-2-2.29-4.47-2.87-7-1.49-6.57-1.63-13.31-2.74-19.92-.44-2.62.09-5.39.14-8.09,0-2,0-4,0-6,0-1.52-.11-3,1.12-4.27a2.24,2.24,0,0,0,.39-1.34c.37-5.9.68-11.8,1.07-17.7.19-2.86.55-5.71.77-8.57a6.63,6.63,0,0,0-.22-2.35,20.7,20.7,0,0,1-.4-11.12,10.11,10.11,0,0,0-.29-6.36,1.9,1.9,0,0,1-.25-.92c.51-2.49-.36-4.85-.6-7.28-.41-4-.54-8.12-.71-12.19a10.57,10.57,0,0,1,.29-3.56c1.47-4.66.32-9-1.32-13.37a4.87,4.87,0,0,0-3.73.06c-1.13.38-2.22.91-3.36,1.27-.74.22-1.73.59-2.3.3-2-1-4.1-.14-6.09-.68a1.43,1.43,0,0,0-.94,0c-2.92,1.59-5.81.11-8.67-.16a16.21,16.21,0,0,0-5,.08c-2,.44-4.05.94-6.08,1.39a12.85,12.85,0,0,1-2.13.3c-2,.09-2.3-.16-2.73-2.14-.77-3.59-1.56-7.18-2.41-10.75a17.44,17.44,0,0,0-1-2.51l-.6.1a22.7,22.7,0,0,0-.39,2.95c0,5.11,0,10.23,0,15.35,0,2.79-.07,5.59,0,8.38a20,20,0,0,0,.58,4.23c1.1,4.4.7,8.92,1.2,13.35.31,2.78.92,5.52,1.33,8.28s.7,5.72-.34,8.53a2,2,0,0,0-.17.93c.68,4-.31,7.83-.94,11.72a46.65,46.65,0,0,0-.25,6.7c0,3.18.35,6.4-.91,9.47a1.9,1.9,0,0,0-.05.95c.28,2.54.5,5.08.89,7.6a10.27,10.27,0,0,0,1.08,3.39,11.26,11.26,0,0,1,1.3,5.3c.07,2.24.22,4.49.09,6.72a50.77,50.77,0,0,0,1.62,14.63c.54,2.33.52,4.52-.94,6.56a9.69,9.69,0,0,0-1.51,5.69c-.05,2.55-.36,5.09-.43,7.65a22.64,22.64,0,0,0,.27,4.51,9.32,9.32,0,0,1-1.79,7.92c-1.37-.3-1.73-1.29-2-2.43-.4-1.69-.45-3.69-1.43-5-2-2.66-1.93-6-3.41-8.83-1.19-2.27-1.54-5-2.26-7.5a28.12,28.12,0,0,0-.82-2.75,2.66,2.66,0,0,0-2.5-1.94,3.48,3.48,0,0,1-2.66-1.35,14.69,14.69,0,0,0-1.31-1.05,2,2,0,0,0-3.19,1.7c1,4.22-.49,8.38-.17,12.58a17.18,17.18,0,0,0,1.29,6.48,8.14,8.14,0,0,1-.57,8,4.11,4.11,0,0,1-4.25,2c-1.17-.13-2.3-.64-3.47-.88-2-.41-4.06-.73-6.09-1.11a6.73,6.73,0,0,1-4.54-2.62c-1.95-2.61-2.86-5.63-3.8-8.59a33.18,33.18,0,0,1-1-6.86c-.34-3.34-.46-6.7-.9-10-.35-2.58-1.05-5.11-1.6-7.72-1.74.71-2.2,1.38-1.72,2.71a26.38,26.38,0,0,0,1.59,3c-.12.2-.15.31-.2.33a12.26,12.26,0,0,0-7,6.19,3.53,3.53,0,0,1-1.38,1.3c-2.89,1.5-5.88,2.84-8.71,4.45a24.24,24.24,0,0,0-3.45,2.93,6.79,6.79,0,0,1-2,1.53c-2.63.83-4.77,2.52-7.12,3.83a13.25,13.25,0,0,1-2.17.86c-.29.1-.69,0-.93.17-2.89,1.95-6.58,1.74-9.55,3.58-1,.61-2.42.53-3.62.93a14,14,0,0,0,6.53-.16c3.38-.91,6.77-1.81,10.1-2.91,2.94-1,5.81-2.19,8.7-3.33s5.63-2.26,8.42-3.45a26,26,0,0,0,3.38-1.69,6.22,6.22,0,0,1,3.83-1.14c.05,1-.73,1.56-1.36,2.09-1.54,1.26-3.11,2.49-4.74,3.62A15.6,15.6,0,0,1,304,190a4,4,0,0,0-2.22,1.55A5.62,5.62,0,0,1,298.4,194c-2,.53-3.87,1.49-5.81,2.22-1,.36-2,.63-2.95.9-1.85.51-3.69,1-5.54,1.49a6.8,6.8,0,0,1-1.14.35c-6.19.57-12.38,1.22-18.59,1.62-2.29.14-4.61-.41-6.92-.52S253,200,250.78,200a9.19,9.19,0,0,0-2.63.15,12.27,12.27,0,0,1-5.9,0,45.32,45.32,0,0,0-5.91-.68,5.77,5.77,0,0,0-2.29.57,4.56,4.56,0,0,1-3.92-.06,8.13,8.13,0,0,0-2.54-.49c-1.89-.22-3.79-.37-5.69-.58-1-.12-2-.34-3.07-.45-4-.4-7.92-.75-11.88-1.16a4.51,4.51,0,0,1-1.84-.47c-3.86-2.28-8.1-3.72-12.16-5.57-2.74-1.26-5.58-2.27-8-4.41l1.49-1.39c-2.87-2.47-5.15-5.7-9.57-5.52a5.18,5.18,0,0,1-2.24-.67c-.83-.38-1-1.1-.87-2,0-.39-.55-.92-1-1.26-1.85-1.52-3.71-3-5.64-4.46s-3.29-3-3-5.56a2.24,2.24,0,0,0-1-2.29,3,3,0,0,1-1.39-2.88,4.27,4.27,0,0,0-1.65-3.33,5.35,5.35,0,0,1-1.64-3.36c-.12-1.11-.46-2.19-.69-3.28-.77-3.78-.62-4.67,1.22-7.73-.5-1.36-.88-2.64-1.44-3.84a23.42,23.42,0,0,0-2-3.52c-1.06-1.51-2.26-2.92-3.4-4.38-.1-.12-.17-.35-.28-.37-1.77-.32-2.16-2-2.94-3.16-1.11-1.71-1.62-3.75-3.19-5.25a3.31,3.31,0,0,1-.62-2.67c.92-4.69-.29-9-1.95-13.31a15.11,15.11,0,0,1-.82-6.83c.29-3.66.43-7.33.73-11a9,9,0,0,1,2.23-5.2,7.59,7.59,0,0,0,1.76-4.35c.3-3.07.71-6.14,2.74-8.7a3.12,3.12,0,0,0,.42-1.58,11.94,11.94,0,0,1,2.37-6.1c2.44-3.44,4.53-7.12,6.77-10.7l2.08-3.33a14.9,14.9,0,0,1-1.92.28,53.43,53.43,0,0,1-5.94-.13c-2-.23-3.82-.41-5.64.46a2.67,2.67,0,0,1-.91.28c-3.82.34-7.62.76-11.44.94-3.34.17-6.71-.22-10,.68a7,7,0,0,1-2.61.21c-4.35-.52-8.61.24-12.91.65a64.86,64.86,0,0,1-7.89.19c-5.91-.16-11.82-.52-17.73-.66-3.19-.08-6.39.13-9.58.24-1.69,0-2,.46-2,2.22,0,2.72.09,5.44-.09,8.15s-.66,5.54-1,8.31c-.27,2.46-.51,4.91-.73,7.37-.12,1.35-.19,2.71-.27,4.06-.07,1-.12,2-.18,3,.36.23.55.47.75.48,3.66.13,7.32.25,11,.34.72,0,1.44-.14,2.16-.1,7,.41,14,.85,21,1.26.64,0,1.28,0,1.91-.05,3.83-.09,7.66-.26,11.49-.23a13.74,13.74,0,0,1,8.32,3.32A3.41,3.41,0,0,1,128.65,93c0,1.92,0,3.84.06,5.75a13.93,13.93,0,0,0,1.23,6.05c.54,1-.39,3.3-1.57,4.13a2.81,2.81,0,0,0-1.11,1.19l6.38.91c-.47,2.94-.54,5.59,2.37,7.13-.27.43-.38.76-.61.93a3.83,3.83,0,0,0-1.35,4.3,2.65,2.65,0,0,1-.79,2.77,11.07,11.07,0,0,0-1.65,2.88c-.78,1.77-1.94,2.89-4,2.84-.47,0-1.15,0-1.37.23-1.27,1.62-3,1.16-4.63,1.15-2.16,0-4.32-.27-6.46-.19a50.29,50.29,0,0,0-5.45.76c-3.64.55-7.26,1.14-10.9,1.66a16.48,16.48,0,0,1-2.63.07q-8.4-.09-16.78-.22c-2.24,0-4.47-.12-6.71-.16s-2.69.45-2.72,2.64c0,1,.05,1.92.1,2.88a59.63,59.63,0,0,1-1.47,15.7A27.94,27.94,0,0,0,68.93,168a67.62,67.62,0,0,1,1.29,16.91,25.12,25.12,0,0,0,.55,5.23c.4,2.53.19,3.15-2,4.19a10.59,10.59,0,0,0-4.22,3.43c-1.35,1.88-2.9,3.62-4.16,5.55-.87,1.33-1.26,2.95-2.08,4.31A15.92,15.92,0,0,1,55.61,211a4.55,4.55,0,0,1-5.75.47c-3.74-2.15-7.44-4.34-11.26-6.34A9.84,9.84,0,0,0,34.24,204c-3.27,0-5.31-1.79-7.08-4.18a8.49,8.49,0,0,1-2.11-5.48,14.55,14.55,0,0,0-.3-2.13c-.2-2-.42-3.94-.57-5.92-.27-3.42-.49-6.84-.73-10.26-.43-6.06-.88-12.11-1.28-18.17a9.45,9.45,0,0,1,.19-3.1,30.46,30.46,0,0,0,.7-7.84c0-1.59.34-3.18.45-4.77a19,19,0,0,0,0-3.11c-.49-5.17-1.18-10.33-1.5-15.51a81.3,81.3,0,0,1-.11-13.87,17.77,17.77,0,0,0-.42-4.51c-.37-2.44-.85-4.86-1.29-7.29a2,2,0,0,0-.18-.69c-2.38-3.35-2.13-7.2-2.13-11,0-4.64.35-9.3-.06-13.9a97.67,97.67,0,0,1-.16-14.81,9,9,0,0,1,.44-2.31c1-2.72.33-4.83-2.08-6.41-1.54-1-3.1-2-4.7-2.88a7,7,0,0,0-2-.61c-.86-.18-1.76-.18-2.6-.41-2.7-.74-3.43-2-3.06-4.76A21.56,21.56,0,0,0,3.86,37a3.68,3.68,0,0,0-1.55-3.08A20.34,20.34,0,0,1,0,31.54a15,15,0,0,1,2.75-2.49A10.51,10.51,0,0,1,6,28.33c1.81-.29,3.11-1.14,3.44-3L22,22c0-1.53-.94-1.8-1.81-1.79a23.87,23.87,0,0,0-4,.42c-2.35.44-4.67,1.12-7,1.47a6.11,6.11,0,0,1-3.2-.52c-1.31-.57-1.6-1.69-1.37-3.24C4.75,17,5.81,17.1,6.74,16.66c3.88-1.84,8.19-1.19,12.14-2.41,1.27-.4,2.55-.75,4.11-1.2L21.35,9.4c.19-.12.37-.33.58-.37,2.73-.52,5.45-1.08,8.19-1.48a2.62,2.62,0,0,0,2-1c1.08-1.52,2.63-1.84,4.39-1.9,3.67-.14,7.33-.47,11-.62a39.1,39.1,0,0,0,8.38-1.72c.15,0,.38,0,.45-.12C57.59.64,59.58,1.07,61.11.33a2.61,2.61,0,0,1,3.27.6c1.72,1.75,4.25,2.59,5.45,5,.2.39,1.1.58,1.69.61,3.67.19,7.35.31,11,.44a7.74,7.74,0,0,0,1.67-.07c6-1.2,12-.73,17.94-.72,7.52,0,15,.12,22.55.42,4.62.18,9.23,1,13.85,1.15a56.1,56.1,0,0,1,11.83,1.71c.92.23,1.79.62,2.7.92s2,.64,2.95.94c1.82.56,3.67,1,5.45,1.68s3.35,1.5,5,2.25a5,5,0,0,1,3,5.21c-.1.93-.5,1.49-1.49,1.52-7.34.21-14.68.92-22,.18-2.76-.27-5.54-.41-8.5-.62.45,1.19,1.3,1.2,2,1.28,6.44.68,12.87,1.52,19.32,1.94a18,18,0,0,1,8.34,2.58,4,4,0,0,1,2.29,3.87c-.08,2.16-.06,4.32-.08,6.47a8.35,8.35,0,0,0,.13,1.12,14.1,14.1,0,0,0,6-5.6,5,5,0,0,1,1.86-1.42,22,22,0,0,0,5.22-4.16,35.08,35.08,0,0,1,4.5-3.39c1.55-1.13,3.16-2.17,4.66-3.35,2.06-1.64,4-3.41,6.07-5.07A11.49,11.49,0,0,1,199.5,15a39.74,39.74,0,0,1,4.58-2.46,11.81,11.81,0,0,1,4.4-.71,6.52,6.52,0,0,0,3.57-1,7.38,7.38,0,0,1,3.12-.93c1.81-.06,3.63.19,5.44.3a4.19,4.19,0,0,0,.94,0c3.55-.56,7.1-1.1,10.64-1.72,1.87-.33,3.7-1,5.57-1.17a48,48,0,0,0,10.38-1.68,5.61,5.61,0,0,1,2.57.08,13.44,13.44,0,0,0,6,.09,9.15,9.15,0,0,1,6.33.45,13.75,13.75,0,0,0,6.79,1A13.7,13.7,0,0,1,279,9.54a2.36,2.36,0,0,0,1,.52c3,.38,5.28,2.21,7.84,3.49a4.33,4.33,0,0,1,1.53,1.13c1.57,2.1,3.89,3.27,6,4.73A7.25,7.25,0,0,1,298.14,26c-1.35-.06-1.85-1.07-2.32-2.08A3.6,3.6,0,0,0,293,21.57c.18,1.86.33,3.58.52,5.29A2.07,2.07,0,0,0,294,28c1.67,1.83,3.32,3.7,5.14,5.39a8.56,8.56,0,0,0,2.79,1.32,3.05,3.05,0,0,1,2,2.4c.83,3.15,1.95,6.23,3,9.31a2.21,2.21,0,0,1,0,2.21,5.19,5.19,0,0,0-.21,2.26,23,23,0,0,1-.18,4c-.53,2.39-2.84,3.11-4.73,1.54a4.92,4.92,0,0,1-1.49-2.12,4.54,4.54,0,0,0-2.06-2.52c-1.82-1.15-3.57-2.43-5.46-3.46a6.64,6.64,0,0,0-4.73-.82l3,2.24-3.1.78c.12.26.16.58.32.65,3.54,1.65,4.84,5.67,8.1,7.61.14.08.33.19.35.31.48,2.15,1.05,4.29,1.33,6.46.11.82-.75,1.43-1.68,1.32a14.91,14.91,0,0,1-2.54-.61c-.65-.2-1.27-.52-2.43-1l1.81,4.12a29.15,29.15,0,0,1-4,.34,3.59,3.59,0,0,1-2.39-.85,9.17,9.17,0,0,0-7-3.28A9.47,9.47,0,0,1,275.07,64c-4.91-3-9.84-6.06-15.54-7.45-1.61-.39-3.28-.53-4.93-.78a5.87,5.87,0,0,1-1.65-.22c-2.57-1.2-5.33-.82-8-1.05a31.54,31.54,0,0,0-5.72-.33,65.35,65.35,0,0,0-7,1.4,26.32,26.32,0,0,1-2.75.57c-2.57.25-5.08.61-7.2,2.28-.18.14-.38.35-.6.37-2.76.38-4.38,2.47-6.32,4.1-1.22,1-2.55,1.91-3.82,2.87A12.08,12.08,0,0,0,210.08,67c-1.32,1.38-2.56,2.84-3.93,4.16a12.48,12.48,0,0,0-2.59,3.36A17.94,17.94,0,0,1,201,78.34a15.26,15.26,0,0,0-3.74,7.86,76.7,76.7,0,0,1-2.08,8.29,19.82,19.82,0,0,0-1,9.1,17,17,0,0,1-.07,2.84c0,1.9,0,3.81.15,5.7.09,1.14.83,2.18.26,3.45-.18.4.43,1.13.63,1.72a27.5,27.5,0,0,1,1.25,4.06c.28,1.75.37,3.46,1.81,4.8.47.44.57,1.29.82,2a25.35,25.35,0,0,0,5.66,9.64,20.32,20.32,0,0,0,2.86,2.05c.26.18.64.24.83.46,2.33,2.75,5.64,4.15,8.5,6.17a5.58,5.58,0,0,1,.92.75,9.6,9.6,0,0,0,7.88,3.28,17.64,17.64,0,0,1,4.89,1.06,11.5,11.5,0,0,0,5.19.31,29.5,29.5,0,0,1,6.44-.28c5.23.35,10.37-.41,15.52-1a20.49,20.49,0,0,0,5.41-1.75c2.12-.9,4.13-2,6.2-3a3.6,3.6,0,0,1,1.58-.43,10.31,10.31,0,0,0,5-1.53c2.42-1.22,4.91-2.3,7.4-3.37a3,3,0,0,1,3.87.79c.55.66,1.85.66,2.45,1.3,2.2,2.33,3.94,1.34,5.91-.34a11.49,11.49,0,0,1,5.64-2.2c-.73.88-1.15,1.4-1.57,1.92l.22.35c2.23-1,4.46-1.91,6.66-2.94.47-.22.8-.75,1.2-1.13,1.1-1,1.82-.9,2.26.48a17.18,17.18,0,0,1,.42,2l-2.19,1.46c1.52,1.09,3.06.66,4.78,1.11-.36-1.73-.65-3.1-.94-4.48a21.91,21.91,0,0,1-.11-7.62,57.09,57.09,0,0,0,.32-7.17c0-2.65,0-5.28,1.11-7.78a5.28,5.28,0,0,0,.29-1.64c.17-2.38.35-4.77.44-7.16,0-.94-.17-1.9-.21-2.85s0-1.87,0-2.81c0-.31.16-.63.15-.93-.13-2.38-.4-4.75-.41-7.13a29.32,29.32,0,0,0-1-7.09c-.66-2.62-.69-5.41-1.4-8-1.93-7.13-.86-14.25-.24-21.37.37-4.23.77-8.43-.05-12.66a15.25,15.25,0,0,1-.17-2.62c0-2-.13-4-.05-6a39.71,39.71,0,0,1,.55-4.48c.59-3.77,0-7.5-.32-11.24-.15-1.88-.6-3.75-.91-5.62,0-.08,0-.18,0-.24,1-1.85.08-3.75.14-5.63s.46-2.21,2.29-2.24a3.44,3.44,0,0,0,1,0c2.8-1.06,5.17.26,7.61,1.3a6.16,6.16,0,0,0,2.1,0,13.23,13.23,0,0,1,.14,2.56,12.81,12.81,0,0,0,.53,6.14,51.49,51.49,0,0,1,1.56,5.28A7.74,7.74,0,0,0,328,26c.36.31,1.09.61,1.4.45a1.65,1.65,0,0,0,.52-1.39c-.32-2.53-.75-5-1.15-7.55,0-.24-.11-.47-.12-.71-.09-3.16.36-6.41-1.92-9.09,1.16-.6,2-1,2.79-1.45,1.65-1,2.43-.73,2.83,1.25.64,3.12,1.11,6.28,1.64,9.43.07.38.11.77.18,1.26,1.08-1.42,1.12-1.42,1.3-5.33.1-1.91,0-3.83,0-5.65a5.35,5.35,0,0,1,5.91-.41c1.91,1,3.37,2.13,2.82,4.51,2.32,1.29,3.13,1,3.51-1.38.21-1.25.25-2.54.37-3.93l2-.7a3.18,3.18,0,0,1,.64.26A28.29,28.29,0,0,0,353.1,7.1c1.41.69,2.73,1.35,2.62,3.28,0,.37.41.85.76,1.13a9,9,0,0,1,3.11,6.75c.16,2.15.48,4.28.76,6.42a15.87,15.87,0,0,0,.49,1.84A5.2,5.2,0,0,0,363,22.2a68,68,0,0,0-.67-7.13,32.38,32.38,0,0,0-.95-4.21,1.5,1.5,0,0,1,1-2.08c2.4-.78,4.87-1.38,7.24-2.24,4.44-1.62,9-.63,13.55-1s8.95-.31,13.42-.48a42.49,42.49,0,0,1,8.58.41A19.62,19.62,0,0,0,409,5.38c2.56-.09,5.11-.2,7.66-.24s5.09,0,7.64,0c2.08,0,4.16.11,6.23.13s4.14,0,6.21,0c.48,0,1.09-.19,1.4,0,1.73,1.23,3.71.89,5.57.9,7.44,0,14.87-.13,22.31-.09,3.33,0,6.66.43,10,.5,3,.08,6.06,0,9.08-.12,4.39-.21,8.77-.62,13.16-.81,1.65-.07,3.32.39,5,.33,2.55-.09,5.1-.38,7.63-.67s4.73-.61,7,.77c1.27.78,1.87,1.64,1.54,3.1-.16.69-.37,1.38-.49,2.08-.16.89-.25,1.78-.42,3.06a15.75,15.75,0,0,0,1.71-.66c3.27-1.85,6.55-3.69,9.78-5.6a14.48,14.48,0,0,1,7.09-1.95c3.35-.1,6.71,0,10.07-.08a47.69,47.69,0,0,0,4.78-.27,34.57,34.57,0,0,1,11.42,1,8.63,8.63,0,0,0,5.84-.41,4.63,4.63,0,0,1,4.56,0,8.36,8.36,0,0,0,6,.84,30.5,30.5,0,0,1,4.28-.51,9.75,9.75,0,0,1,5.78,1.15,3.91,3.91,0,0,0,2.47.38,14.31,14.31,0,0,1,4.48-.08,36.54,36.54,0,0,0,8.55.2,40.81,40.81,0,0,1,10,.43,26.87,26.87,0,0,1,5.81,1.31,6.93,6.93,0,0,0,5.11-.15,4.35,4.35,0,0,1,5.49,2.69c.31,1.09-.12,1.82-1.39,2-2.46.35-4.92.59-7.39.87a6.57,6.57,0,0,0-1.42.16c-3.54,1.3-7,.73-10.64.16a41.24,41.24,0,0,0-11.48-.22,6.35,6.35,0,0,0-2.81,1c.9.16,1.79.34,2.69.48,1.8.3,3.61.59,5.41.87a6.74,6.74,0,0,0,1.19.08C612,18,618,18.63,624,18.65a4.2,4.2,0,0,1,1.42.19c4.5,1.67,9.28,1.42,13.93,2.05,2.53.34,5.1.44,7.64.66,4.21.37,7.23,2.83,9.89,5.8a3.09,3.09,0,0,1,.35,3.81,3.52,3.52,0,0,1-3.48,1.47,17.52,17.52,0,0,0-4.25.32c-.63.07-1.27.45-1.85.36a39,39,0,0,0-8.07-.65c-1.9.13-3.81,0-5.71,0-1.74,0-3.59.19-5.2-.33a19.45,19.45,0,0,0-7.56-.79c-3.59.25-7.18.51-10.76.82-1.08.1-2.14.38-3.56.64a5.52,5.52,0,0,0,4.31,1.44c2.72,0,5.44-.09,8.15,0,5.2.19,10.39.4,15.57.79a59.5,59.5,0,0,1,7.48,1.23c2.46.52,4.91,1.13,7.31,1.86A7.73,7.73,0,0,1,652.48,40a3.52,3.52,0,0,1,.82,4.52,39.14,39.14,0,0,0-1.81,5.65,6.1,6.1,0,0,1-6.24,4.1c-1.58-.2-3.18-.2-4.77-.28a4.38,4.38,0,0,1-.72,0c-2.09-.44-4.16-.69-6.17.41-.34.19-.93-.08-1.4-.12a4.15,4.15,0,0,0-1.63-.09c-3.27,1.22-6.65.63-10,.65s-6.71,0-10.06,0a19.7,19.7,0,0,1-3.34-.34,30.08,30.08,0,0,0-8.58-.08c-2.94.28-5.91.29-8.86.42a14.25,14.25,0,0,0-6,1.52,6.35,6.35,0,0,1-5.74,0c-4.13-1.75-8.55-1.83-13-1.72a1.42,1.42,0,0,0-1.5,1.52,37.68,37.68,0,0,0-.25,3.82c.13,3.09-.66,6.21.29,9.27a3.15,3.15,0,0,1,0,1.67c-1,3.71-.26,7.49-.52,11.23-.12,1.56,0,1.66,1.55,1.53,2.44-.21,4.86-.58,7.3-.75,4.06-.3,8.1-.74,12.16.2a12.51,12.51,0,0,0,4.76-.08,27.22,27.22,0,0,1,9,.37,39.26,39.26,0,0,0,6.67.49,45.75,45.75,0,0,1,11.2,1,31,31,0,0,0,10,.22c3-.3,3.05-.25,4.4,2.45.17.36.3.84.6,1a48.55,48.55,0,0,0,5.22,2.8,11.13,11.13,0,0,0,3.25.29,14.92,14.92,0,0,1,.25-2.53,15.32,15.32,0,0,1,1.41-4,20.12,20.12,0,0,0,2.79-7.84c.42-2.82.53-5.67,2.52-8a3.14,3.14,0,0,0,.53-1.81c.11-3.72,2-6.62,4.18-9.41a10.34,10.34,0,0,0,.84-1.16c2.26-3.93,4.5-7.87,6.76-11.79a4.44,4.44,0,0,1,1-1.07c1.37-1.18,3-2.1,3.48-4.1.11-.46.79-.76,1.16-1.18.83-1,1.63-1.94,2.44-2.91.24-.3.45-.8.73-.85,2-.39,2.76-2.09,3.69-3.54A7.87,7.87,0,0,1,674.59,28a6.42,6.42,0,0,0,2.33-1.66c2.56-2.88,5.75-4.9,8.86-7.1,2.8-2,5.27-4.41,7.92-6.6a15.38,15.38,0,0,1,2.15-1.37,31.18,31.18,0,0,1,4.73-2.66,28.69,28.69,0,0,1,4.86-.84,5.77,5.77,0,0,0,2.41-.65A7.15,7.15,0,0,1,713,5.67c1.11.08,2.23,0,3.27,0,.54.64.93,1.55,1.5,1.68a5.92,5.92,0,0,0,2.48-.45,15.44,15.44,0,0,1,2.26-.61c2.32-.19,4.51-.44,6.53-1.93a7.19,7.19,0,0,1,4.05-1.1A29.88,29.88,0,0,0,743.47,1.6a6.5,6.5,0,0,1,5.75.68,8.15,8.15,0,0,0,5.44,1.08,83.3,83.3,0,0,1,9.75-.18,1.8,1.8,0,0,1,.93.15c4.63,2.82,9.95,3.68,15,5.27,1.57.5,3.32.78,4.6,1.69A11.39,11.39,0,0,1,788,14.12c1.15,2.13,1.34,4.55,1.57,7a19,19,0,0,0,1.18,5.59c.86,2,2.35,3.69,3.4,5.61a5.17,5.17,0,0,1,.65,2.91,2.64,2.64,0,0,1-1.52,1.88,48.18,48.18,0,0,1-7.09,1,5.77,5.77,0,0,1-2.43-.85c-1.28-.59-2.49-1.38-3.81-1.86-2.18-.78-4.41-1.42-6.65-2a8.82,8.82,0,0,0-2.81-.22c-2.23.14-4.46.33-6.67.6-2.37.29-4.75.61-7.08,1.1a11.24,11.24,0,0,0-2.62,1.35l.16.52c1,0,2.09,0,3.13,0,2.08-.07,4.15-.23,6.23-.25a4.35,4.35,0,0,1,2,.5c1.93,1.05,3.73,2.35,5.72,3.26a7.22,7.22,0,0,0,3.47.42,3.2,3.2,0,0,1,2.56.81,11.42,11.42,0,0,0,3.75,2,22.59,22.59,0,0,1,6,3.43,7.2,7.2,0,0,1-6,.4c-1.76-.7-3.89-.57-5.3-2.23-.29-.34-1-.36-1.6-.4a20.77,20.77,0,0,0-7.81.35c-.16,2.38,2.32,2.92,2.75,4.74-1.89,2.42-1.86,2.35-4.8,1.32a14.52,14.52,0,0,0-4.17-.79,11.84,11.84,0,0,1-4.67-.79,3.34,3.34,0,0,0-3.23-.15,1.14,1.14,0,0,1-.88.15c-1.88-.86-3.65.09-5.37.48a49.12,49.12,0,0,1-9.56,1.47,4.86,4.86,0,0,0-1.36.46c-3.38,1.17-6.74,2.47-10.18,3.47a16.91,16.91,0,0,0-6.23,2.92c-.19.15-.37.39-.57.42-3.61.53-5.63,3.88-8.89,5a1.81,1.81,0,0,0-.89.77A10.08,10.08,0,0,1,704,68.23a8.7,8.7,0,0,0-3.84,4.1,17,17,0,0,1-2.65,4.09,15.92,15.92,0,0,0-3.75,7.89c-.26,1.31-.77,2.57-1,3.88-.49,2.26-1,4.52-1.33,6.81-.3,2-.45,3.94-.63,5.92a4,4,0,0,0,.12,1.42,11.62,11.62,0,0,1,0,5,26.38,26.38,0,0,0,.2,4.51c0,1.22,1.06,2.35.27,3.69-.15.26.17.94.44,1.3a10.47,10.47,0,0,1,1.68,5.66,5.22,5.22,0,0,0,1.28,3.27,7.1,7.1,0,0,1,1.15,2.32,26.77,26.77,0,0,0,5.3,9.32c1,1,1.88,2.19,3.41,2.5a1.85,1.85,0,0,1,.63.34c3.86,2.94,7.73,5.86,11.55,8.85a6.3,6.3,0,0,0,4.05,1.25,24,24,0,0,1,7.27,1.32,9.24,9.24,0,0,0,3.06.34c2.71-.09,5.42-.55,8.11-.41,5.07.29,10.05-.51,15-1.06a19.06,19.06,0,0,0,5.19-1.67c2.11-.9,4.13-2,6.21-3a4.49,4.49,0,0,1,1.79-.52,9.56,9.56,0,0,0,4.53-1.35c2.41-1.24,4.87-2.41,7.37-3.45a4.35,4.35,0,0,1,4.77.75,14.31,14.31,0,0,0,6.07,3.06,16.34,16.34,0,0,1,5.17,1.68,12,12,0,0,0,6.26,1.2c1.11,0,2.22,0,3.42,0a7.46,7.46,0,0,1,.43.84c1.51,4.45,3.05,8.88,4.48,13.35a10.63,10.63,0,0,1,.45,3.5,22.07,22.07,0,0,1-.56,5.59,31.71,31.71,0,0,1-2.62,5.57,2.82,2.82,0,0,1-1.18,1.14c-2.89,1.5-5.88,2.84-8.71,4.46A27,27,0,0,0,794,184.6a16.32,16.32,0,0,1-2.47,1.76c-1.1.61-2.37.94-3.41,1.62a33.36,33.36,0,0,1-11.31,4.7,18.76,18.76,0,0,0-2.23.83,45.82,45.82,0,0,0-5.76,2.27c1.86-.1,3.85.17,5.57-.38,3.17-1,6.46-.91,9.65-1.57,2.59-.54,5.18-1,7.76-1.57a5.56,5.56,0,0,0,1.13-.38c3.56-1.61,7.15-3.15,10.65-4.86a43.28,43.28,0,0,0,4.21-2.74,12.91,12.91,0,0,1,1.31-.68,1.89,1.89,0,0,1-.7,2.23c-1.81,1.55-3.66,3-5.57,4.49a14,14,0,0,1-2.13.89c-1.47.74-2.91,1.52-4.36,2.31-.27.14-.47.47-.76.55-4.89,1.44-9.77,2.9-14.69,4.23-1.61.44-3.33.42-5,.79-1.19.27-2.29,1-3.48,1.18a17.44,17.44,0,0,0-3.47.52,67.79,67.79,0,0,1-7.25,1.59,6.66,6.66,0,0,1-1.67.07c-5.42-.33-10.84-.62-16.25-1-2.26-.17-4.5-.64-6.75-1-2.52-.37-5-1-7.58-.11A5.54,5.54,0,0,1,727,200c-.61-.13-1.24-.61-1.8-.54-4,.53-7.73-1.11-11.64-1.26-3.25-.12-6.5-.53-9.73-.94a12.31,12.31,0,0,1-2.83-1.06c-.29-.12-.53-.37-.82-.5-3.74-1.61-7.45-3.3-11.24-4.79a21.35,21.35,0,0,1-7.57-4.41l1.29-.85c0-.11.07-.33,0-.41-2.62-2.67-5.08-5.54-9.4-5.34-1.74.08-2.24-.65-2.85-2.63a3.41,3.41,0,0,0-1.15-1.45c-1.86-1.52-3.73-3-5.65-4.45s-3.23-3-2.9-5.6a2.23,2.23,0,0,0-1.07-2.23,2.89,2.89,0,0,1-1.31-2.68,4.13,4.13,0,0,0-1.52-3.38,4.8,4.8,0,0,1-1.63-3.09,4.68,4.68,0,0,0-1.86-3.47,4.39,4.39,0,0,1-1.64-3.83,7.84,7.84,0,0,0-1-3.89,9.71,9.71,0,0,1-.75-2.51c-.47-2.42-.84-4.87-1.37-7.28a7.59,7.59,0,0,0-1.63-3.35,25.12,25.12,0,0,1-2.8-5.22,1.51,1.51,0,0,0-2.26-.91c-3.37,1.2-6.91,1.8-10.36,2.67a71.7,71.7,0,0,1-12.22,1.9,9.88,9.88,0,0,0-3.66,1,7.13,7.13,0,0,1-4.15.82c-1.6-.15-3.18-.39-4.77-.47a24.79,24.79,0,0,0-4.56,0,37,37,0,0,1-11.7-.24,12.17,12.17,0,0,0-7.05.66,3.21,3.21,0,0,1-1.87.1,24.85,24.85,0,0,0-10.92.28c-1.63.34-3.31.44-5.25.68-.81,7.19.66,14.3.69,21.39,1.45,1,2.91.73,4.29.46,2.41-.48,4.77-1.37,7.29-.5.41.14.94-.14,1.42-.13,1.66,0,3.32.19,5,.2,1.25,0,2.51-.16,3.76-.18a12.78,12.78,0,0,1,3.28.14,12,12,0,0,0,8.63-.72c2.66-1.33,5.4-1.12,8.13-.35a15.15,15.15,0,0,0,7.11.41,5,5,0,0,1,2.83.09c1.66.75,3.05.28,4.57-.29a22.3,22.3,0,0,1,9.16-1.53,4.22,4.22,0,0,1,3.59,2,9.06,9.06,0,0,0,2.37,2.29,3.39,3.39,0,0,0,2.21.44c2.34-.39,4.06.17,5.22,2.17a4.28,4.28,0,0,0,1.67,1.47A14.23,14.23,0,0,1,650,162a3.53,3.53,0,0,1-1,5,3.73,3.73,0,0,1-2.07.2c-2.52-.19-3,.16-3.61,2.67-.19.77-.41,1.54-.68,2.6.68.37,1.39.82,2.16,1.16,1.24.54,2.53,1,3.77,1.53,1.86.82,2,1.16,1.8,3.11a5.08,5.08,0,0,1-.25,1.17,20.09,20.09,0,0,0-1.56,7.4,5.64,5.64,0,0,1-3.37,5.16c-2.44,1.2-5,2.24-7.28,3.65a13.46,13.46,0,0,1-7,1.8c-5.58.2-11.15,1-16.73,1.29-2.2.13-4.44-.35-6.66-.41a17.41,17.41,0,0,0-5,.3,21.73,21.73,0,0,1-9.49.22,17,17,0,0,0-3.55-.31c-4.39.22-8.76.65-13.15.8-2.79.09-5.51,0-8.21,1.14-1.19.49-2.84.1-4.21-.19a5.45,5.45,0,0,0-3.9.39,9,9,0,0,1-3.47.57c-.78,0-1.57-.32-2.36-.36-2.77-.13-5.3-.61-7.36-2.82-1.14-1.22-2.36-.91-3.54.34-.38.4-.69.88-1,1.31-1.18,1.46-1.7,1.49-3.08.17-.46-.45-.79-1.08-1.33-1.37-1.09-.58-2.32-1.45-3.41-1.35a4.12,4.12,0,0,1-3.21-1,50.59,50.59,0,0,0-4.51-2.72c.08-.67.19-1.58.31-2.63-.5-.09-.95-.22-1.41-.26-3.26-.27-5.86-1.84-8.32-3.9a5.72,5.72,0,0,1-2.18-5,5.88,5.88,0,0,0-1-3.47,25.31,25.31,0,0,1-2.18-6,50.38,50.38,0,0,1-1.6-15.91c.34-5.92-.63-11.8-1.49-17.66-.25-1.73-.68-3.44-.86-5.17a25.23,25.23,0,0,1,.1-3.58c0-1,.06-2.06.1-3.09a4.41,4.41,0,0,1,.13-1.15A69.33,69.33,0,0,0,511,114.49a33,33,0,0,0,.29-7.36,11.47,11.47,0,0,1,.1-2.87c.9-4.62.38-9.24.22-13.87-.21-6.24-.29-12.47-.41-18.71a3.07,3.07,0,0,1,.07-1c1.44-4.84.91-9.83,1.12-14.77.11-2.8.32-5.59.47-8.38,0-.76,0-1.52,0-2.43a4.14,4.14,0,0,0-3,2.13,7.64,7.64,0,0,1-5,3A60.11,60.11,0,0,1,491,51.58c-7-.07-13.92-.14-20.86-.49-2.53-.12-3.68,1-4.48,3a7.35,7.35,0,0,0-.43,1.12c-1.14,5.39-2.74,10.68-3.07,16.23-.12,1.9-.7,3.76-1,5.65-.28,1.71-.49,3.44-.7,5.17a26.39,26.39,0,0,1-.62,5.16c-.66,2-.41,3.94-.33,5.92.05,1.51,0,3,.07,4.54.1,1.66.28,3.32.46,5,.23,2.06.61,4.1.71,6.16q.38,7.9.54,15.82c.06,3.36-.2,6.73,0,10.08.19,3.6-.19,7.15-.3,10.72s.81,7.3,1,11c.23,5.43.17,10.86.23,16.29a2.39,2.39,0,0,1-.1.71c-1.4,4.12-1.36,8.31-.88,12.57a24.16,24.16,0,0,1-.29,4.47,1.3,1.3,0,0,0,0,.48c.86,2-.05,3.92-.18,5.87a28.35,28.35,0,0,1-.9,4.62c-.23.89-.77,1.66-1.87,1.48a1.61,1.61,0,0,1-1.49-1.86c.53-3.32-1-6.19-2.34-8.89a21.3,21.3,0,0,1-2.27-7.35,15.59,15.59,0,0,0-2-5.31,5.07,5.07,0,0,0-2.52-2.08,61.14,61.14,0,0,0-6.18-1.67A10,10,0,0,0,439.74,175.83Z"/></svg>